<?xml version="1.0" encoding="UTF-8"?>
<svg version="1.1" viewBox="0 0 2048 2048" width="1280" height="1280" xmlns="http://www.w3.org/2000/svg">
<path transform="translate(803,73)" d="m0 0h439l20 2 21 6 12 5 17 9 14 11 12 11 11 13 11 18 7 15 6 20 2 12 1 14 1 162v54l208-1h324l16 2 17 3 18 6 23 12 9 7 13 11 12 13 10 14 8 15 5 13 4 13 4 17v1296l-5 26-8 24-10 18-8 11-9 10-5 5-10 9-13 9-17 9-21 7-23 4-9 1h-1766l-29-3-19-5-15-6-18-10-14-11-10-9-9-11-8-11-10-18-8-24-3-13-1-8v-1306l9-29 9-19 8-12 11-13 7-8 10-8 11-8 20-11 22-7 26-4h536v-58l1-155 3-26 6-21 6-14 10-17 8-10 9-10 7-7 16-12 18-10 16-6 16-4zm54 140-45 1v211h422l1-92v-119l-38-1z" fill="#6C4128"/>
<path transform="translate(803,73)" d="m0 0h439l20 2 21 6 12 5 17 9 14 11 12 11 11 13 11 18 7 15 6 20 2 12 1 14 1 162v54l208-1h324l16 2 17 3 18 6 23 12 9 7 13 11 12 13 10 14 8 15 5 13 4 13 4 17v406l-23 10-11 5-25 11-57 25-30 13-29 13-30 13-29 13-82 36-30 13-29 13-30 13-29 13-82 36-30 13-29 13-30 13-34 15-41 18-26 11-15 7-41 18-13 6-10 4-27 12-31 13-15 7-10 4-7 1-3-5-1-11-1-12v-52l1-4v-8l1-4-1-1-1-26 1-6-1-3-1-9h-2v2l-6-1-4 1-4-3-13-2-30-1h-28l-58 1h-94l-9 1-2 1h-16l-8 3-10 1-4-3-3 3h-2l-2 12-1 10v19l1 10v62l2 14-1 9-2 1-14-5-10-4-12-5-25-10-13-6-21-9-31-14-76-33-20-9-33-15-56-25-66-29-36-16-30-13-36-16-32-14-66-29-29-13-21-9-43-19-52-23-30-13-43-19-68-29-8-3v-413l9-29 9-19 8-12 11-13 7-8 10-8 11-8 20-11 22-7 26-4h536v-58l1-155 3-26 6-21 6-14 10-17 8-10 9-10 7-7 16-12 18-10 16-6 16-4zm54 140-45 1v211h422l1-92v-119l-38-1z" fill="#804F33"/>
<path transform="translate(803,73)" d="m0 0h439l20 2 21 6 12 5 17 9 14 11 12 11 11 13 11 18 7 15 6 20 2 12 1 14 1 162v50l-1 5h-141l-1-4v-89l1-119h-423v211l3 1h-130l-17 1-3-2h4v-58l1-155 3-26 6-21 6-14 10-17 8-10 9-10 7-7 16-12 18-10 16-6 16-4z" fill="#6C4128"/>
<path transform="translate(881,1201)" d="m0 0h284v267l-1 27-3 21-6 20-8 16-8 14-9 11-7 8-11 9-14 10-17 9-27 9-16 3-9 1h-12l-21-3-26-8-16-8-12-7-16-13-7-7-11-14-8-13-7-14-6-18-3-15-2-27-1-68z" fill="#FDA430"/>
<path transform="translate(882,1413)" d="m0 0 82 1h200v81l-3 21-6 20-8 16-8 14-9 11-7 8-11 9-14 10-17 9-27 9-16 3-9 1h-12l-21-3-26-8-16-8-12-7-16-13-7-7-11-14-8-13-7-14-6-18-3-15-2-27z" fill="#FDA430"/>
<path transform="translate(1164,1310)" d="m0 0h1v158h-1l-1-53h-217l-62-1-3-3v-71l16 1h267z" fill="#F58910"/>
<path transform="translate(8,1872)" d="m0 0h5l5 7 3 7v2l2 2 5 7 1 6 1 4 5 2 4 5 2 5-1 2 6 2v3h3v3h2v2l12 6 2-1 4 2 8 1 5 4 5 2 7 2 6 1 4-1 4 5 4 1 11 5 8 1 3 3v2h3l-1 5h-2l1 7 5 1v1l-17-1-17-3-21-7-19-10-12-9-14-12-12-14-9-14-8-16-5-14 1-4z" fill="#804F33"/>
<path transform="translate(1585,424)" d="m0 0h324l7 1v1l-111 1-3 1-205 1h-34l-27-1h-2l-3-1-19-1v-1z" fill="#8A6146"/>
<path transform="translate(0,1844)" d="m0 0 5 4 4 8v6l-4 5h-2l-3-17z" fill="#855233"/>
</svg>
