<?xml version="1.0" encoding="UTF-8"?>
<svg version="1.1" viewBox="0 0 2047 2048" width="1280" height="1280" xmlns="http://www.w3.org/2000/svg">
<path transform="translate(0)" d="m0 0h2047v2048h-2047z" fill="#FEFEFE"/>
<path transform="translate(1304,275)" d="m0 0h392l10 5 7 7 4 9 1 79 11 15 10 16 12 23 9 23 6 22 4 22 1 10v23h-18l-35-1-1 198-4 9-7 8-8 4-4 1h-332v55l-3 8-6 7-9 4h-207l3 78 1 41v67l-2 38-2 15-2 2-11 1v149l1 49 1 25 129-1-3-7-5-17-30-91-12-36v-6l3-5 4-2h139l6 3 5 6 34 100v2l9-7 11-12 12-17 9-16 9-19 9-25 6-24-5-2-4-2 1-11 5-26 7-26 7-19 8-16 7-10 8-8 18-8 5-1 23-1h14v-7l9-2h5l-2-30-10-1-5-5-1-4v-18l1-8-1-7 7-7 6-11-5-5-2-4v-12l3-8 7-6 5-1 9 3 5 6 5 2 15 1 10 4 9 7 7 8 3 6 1 5v7l-4 12-7 11-12 13-10 8 6 23 4 12 15 4v5l16 1 21 5 19 9 3 2 25 3 14 5 12 7 10 9 9 10 8 15 4 13 1 5v185l-4 25-6 21-8 19-10 19-12 17-5 6-1 21-3 119 28 1 6 5 2 7 16 196v19l-5 8-6 5-8 2h-284l-10-3-7-5-5-8-1-3v-14l30-146 8-38 6-12 7-7 5-3h2v-9l7-68-90 1-11 21-1 16-3 115 6 2 15 8 5 6 3 7v10l-3 7-11 18-14 22-8 10-10 7-9 4-9 2h-35l-5-5v-6l6-8 9-8 5-4 7-14 8-25 2-11-13-17v-2l-9 6-4-1-13-21-1-2-4 2-12 11-9 8v15l3 97-6 2h-17l-1-1-5-48-4-43h-5l-25 25h4l1 5v17l-2 14-4 8-6 5-5 2h-117l-5-5v-7l5-5 11-9 20-13 21-11 21-8 19-5h5 3l12-17 11-16-3-1 1-6 18-43 10-24-1-16-6-62v-9l-8-1-6-5-2-6 1-19 1-8-6-24-3-23v-13h-110v11l-5 46-7 47-9 51-3 15-6 3h-3v12l7-2 8 4 13 12 15 14 14 11 12 8 10 8 10 9 7 8 5 9v8l-6 7-14 7-11 3-8 1h-13l-32-6-61-14-6-4-4-6v-27l3-27 2-10 3-1-1-18h-8l-1-1-2-28-8-147v-3h-80l-1 27-3 64-3 87-1 1h-6v18l3 1 13 79 2 13v7l-3 6-5 5-7 2-23 2h-14l-24-2-8-3-5-6-2-6 1-8 7-28 6-20 9-22 8-14 3-3-1-19-14 1-5-30-6-49-3-32-2-36v-35l-85 1 6 12 15 10 10 9 5 4 9 11 8 11 8 15 6 16 4 18 1 7v18l-4 6-6 3h-5l-2 25 1 10 16 64 10 43v4h-2l5 24v4l5 2 5 5 5 10 13 33 9 29 4 18v15l-4 6-5 3h-10l-10-5-14-10-12-11-12-12-12-16-8-13-3-5-5 48-1 2h-20l-3-1v-21l3-90v-31l-14-34-15-35-17-38-3-8 16-49 10-36 4-21v-17l-3-9-7-9-8-7-12-7h-6l16 9 10 9 6 10 1 3v20l-6 28-11 36-16 49-10 29 1 18 19 189v6l-1 1h-47l-2-3-15-100-4 18 4 6 1 3v22l-3 37-5 30-5 16-5 6-4 2h-9l-6-4-6-7-10-17-9-22-5-19-3-18-1-12v-17l2-10 7-8 13-6 7-1 1-7 1-4-9-1-1-1v-21l2-50 4-65 1-12 1-2h-133l8 249v23l-2 1-21 1-2-7-25-272-8-3-21-8-21-11-6-4-2 50-9 196-9 3-11 1-1-12-7-273-13-17-11-19-8-17-8-24-4-19-2-19v-173l3-16 7-16 7-10 9-10 4-3-10-3-10-6-7-8-8-14-8-18-6-8-7-6-11-6-6-8-3-10 1-12 5-12 7-11 7-7 11-6 9-2h36l10-4 8-6 4-5 5-11 4-10 7-9 7-6 10-5 8-2h16l12 3 16 8 14 10 14 14 10 6 10 3 11-1 12-4h16l12 3 16 8 10 8 7 10 4 9 1 4v14l-4 13-6 10v26l-2 2-4 1-4 8-9 10-4 2h-8l-6-4-4-3-2 6-3 5 10 1 15 4 16 8 12 11 7 9 8 13 9 19 7 22 5 19 7 14 1 3 5-3 10-10 7-10 6-9 10-10 8-7 7-7 8-7 5-5 4 1-2 12-5 10-4 4 2 11v8l-3 10-8 9-10 6-6 1-1 5-7 16 5 2 16 8 15 5 12 2h14l15-4 16-8 12-8 4-10 13-37 6-5 6-2h81v-16l3-52 1-10-10 4-3-1v-24l4-142 1-6-5-2-11-8-12-12-9-14-7-15-5-19-2-16v-19l1-5-12 1 1-11 7-30 11-33 11-25 10-18 10-14 11-13 7-7 14-10 16-8 19-7 21-6 30-6 8-5 5-9 1-4v-8l-8-2-6-5-4-10v-8l-9-1-5-6-1-20-2-9-3-9-8 7-5-2-13-8-5 2-5 3v22l-17 5h-5l-9-16v-2h-13l-2 6-7 13-18-4-4-2v-21l-10-5-15 10-3 1-10-10-5-4 1-5 8-13-1-5-3-5v-2l-9 1h-13l-6-19v-3l18-10v-11l-18-10 1-8 4-14 22-1 4-7-1-4-9-14 1-4 13-13 5 1 13 8 4-1 7-4-1-20 5-3 14-4 4 1 10 17h9l2 1 2-5 7-14 10 1 11 3 2 2-1 21 6 2 5 2 15-10 5 1 13 13-1 4-9 15 5 9h21l3 7 3 10v6l-17 9v12l18 9-1 8-2 7h7l16-4 16-8 10-6 4-1h13l13 4 8 6 5 8 1 4v10l-4 11-6 9-7 6-4 1 3 11 9 10 3 4-1 5-4 3h-2v17l-4 11-5 6-6 3-8 1 2 12 6 10 8 5 25 4 14 4 2 1 1-91 3-9 5-6 8-4h174v-182l3-9 8-9z"/>
<path transform="translate(1309,278)" d="m0 0h224v17l-55 1v2l55 1v19l-228 1v2l227 1v54l-1 61v19l20 6 13 7 10 8 10 11 8 15 4 14 1 6 17 1 99 3v199l-5 10-8 6-5 2h-333v-48l8-20h3l15 11 8 3 2-5 15-23 39-60 4-6-1-4-11-10-7-10-6-12-3-10-1-7v-16l2-10-11-3-45-15-13-5-6-9-8-4-33-1h-26v-183l5-10 8-6z" fill="#FEFEFE"/>
<path transform="translate(606,426)" d="m0 0 3 1 16 30 22 1 2-6 13-25 1-1 10 1 23 6 3 2v36l16 9 6-2 24-16 5 1 23 23-2 5-15 25v4l8 14v2l37-2 3 7 7 24v5l-16 9-15 8v22l6 2 25 13 1 5-8 31h-38l-2 6-6 10 1 5 10 16 7 11-2 4-23 23-11-6-20-12-11 6-7 4 1 23v13l-7 3-25 7-4-1-13-23-3-6v-2l-8 1h-13l-10 19-7 13-11-2-24-6-1-1v-13l1-24-6-2-12-7-9 5-21 14-4-2-16-16-7-6 1-5 10-16 7-12-9-15-1-2-37 1-7-23-2-8v-5l24-13 7-4-1-21-31-16 1-9 6-24 2-3h36l9-16-1-5-17-26 1-4 23-23 5 1 21 13 5 3 4-1 15-9-1-20v-16l8-3z" fill="#FEFEFE"/>
<path transform="translate(883,1291)" d="m0 0h687l11 4 6 5 3 5 1 6-22 147-2 5-6 7-3 9-2 12-10 4-4 6-33 1v-9l15-149v-10l-5-6-7-3h-794l-11 4-7 8-1 3v9l38 378v5h-42l-10-65-52-346-2-13 1-8 6-6 241-1z" fill="#FEFEFE"/>
<path transform="translate(535,1040)" d="m0 0h7l16 4 12 5 11 7 7 7 11 16 8 15 9 25 7 26 8 15v4l-18 12-23 12-9 4-1 2 1 17 4 16 5 12 4 7 13-5 15-10 12-11 11-13 10-16 2-4 6 2 15 8 15 5 9 2 9 1h9l14-3 16-7 12-7 2 1-12 35-12 11-14 10-14 8-16 6-16 3h-17l-16-3-16-6-13-7h-2l3 11 6 16v3l-4 1v8l4 7h-81l-55-3h-15l-10 3-10 6-7 8-5 12-5 25-2 26 2 15 2 6-9-1-14-5-10-6-9-9-7-14-2-10v-17l5-14 9-19 5-17 3-19 1-13v-31l-8-16-6-15-5-18-3-21v-17l3-20 6-18 10-19 7-8 14-9 18-6 26-5 12-1-1 4 15 12 19 14 4 1 9-9 8-7-1-5-4-8z" fill="#FEFEFE"/>
<path transform="translate(1517,1504)" d="m0 0h206l-4 17-32 156-7 34v13l6 12 4 2v1h-221l-8-3-7-6-3-6-1-9 21-103 17-82 4-11 7-8 12-6z" fill="#FEFEFE"/>
<path transform="translate(1058,587)" d="m0 0 13 1 19 5 11 6 17 14 13 12 8 7 10 10 8 7 33 33-1 5-12 16-8 12-1-4 2-6h-139l-4 16-22 79-3 9-23 5-7 1h-22l-16-4-12-6-10-9-6-8-6-13-4-15-2-23-6 2-40 18-16 7-16 3h-3l2-12 6-24 11-33 9-20 11-21 12-17 11-12 7-7 13-9 17-8 27-9 22-5h6l15 7 15 4 9 1h11l17-3 12-5z" fill="#FEFEFE"/>
<path transform="translate(1132,840)" d="m0 0h2l2 54 1 37v84l-2 33-2 11-4 1-33 2h-18l-24-2-16-4-20-6-31-6-23-3-13-1h-41l-22 3-14 4-4 1v-26l4-139 5 1 17 6 19 3h10l19-3 18-6 17-9 16-11 5-4h126z" fill="#FEFEFE"/>
<path transform="translate(1537,282)" d="m0 0h8l26 5 21 6 22 8 23 11 18 11 17 12 14 12 12 11 13 14 13 17 12 19 12 23 9 24 6 23 3 17 2 24v6h-22l-138-4-8-1-6-20-6-11-7-9-9-9-14-9-16-6-8-2v-27l2-118z" fill="#FEFEFE"/>
<path transform="translate(401,1048)" d="m0 0h24l3 3-14 9-7 7-8 14-8 20-3 12-2 18v11l2 18 5 21 8 21 7 14v33l-3 24-5 19-7 16-6 13-2 7v16l3 14 6 12 8 9 13 8 16 5 13 3 8 4 20 4 26 3 29 2 22 1 63 1h30l-4 28-3 27h-143l-21-3-19-5-16-6-16-8-15-9-13-10-12-11-11-11-13-17-9-15-8-16-6-15-6-21-3-17-1-10v-178l4-16 4-10 9-13 11-11 5-3 21-1 13-4z" fill="#FEFEFE"/>
<path transform="translate(1360,1328)" d="m0 0h152l6 3 3 4v10l-5 47-1 1-56 2-13 4-10 6-9 8-9 14-12 24-16 27-18 27-9 12-11 14-12 14-12 13-18 18-11 9-13 11-11 8-5-1-25-14-6-4 6-16 18-42 15-36 38-90 16-38 6-12 8-10 10-10z" fill="#FEFEFE"/>
<path transform="translate(1114,483)" d="m0 0h227l9 3 6 7 2 5v134l-9 11-12 13-7 6v-9h-61v49l-8 3h-3l-1-180h-59l-1 177-6-1-5-3 2-5 6-8-1-4-7-7-1-97h-59l-1 37-8-6-14-11-6-4v-95l4-8 6-5z" fill="#FEFEFE"/>
<path transform="translate(1583,544)" d="m0 0 88 2 19 1v10l-5 23-6 18-9 19-10 16-10 13-11 12-11 11-17 13-18 11-16 8-21 8-24 6-25 3h-24l-25-3-21-5-20-7-6-3 1-4 10-16 15-23 16-25 15-23 5-7 21 5h19l15-3 12-5 11-6 12-11 6-7 7-12 4-11 2-7z" fill="#FEFEFE"/>
<path transform="translate(1693,1006)" d="m0 0 15 1 13 4 12 6 11 9 9 10 7 12 5 15 2 15v160l-2 24-4 20-5 17-10 23-8 14-12 17-9 10-7 8-11 10-16 12-19 11-18 8-19 6-21 4-10 1h-18l1-13 3-20 1-3 28-7 18-6 9-6 7-7 7-11 7-14 4-12 9-12 7-15 7-25 7-36 3-25 2-27 9-19 10-30 3-8-4-50-4-32-4-16-7-13-8-9z" fill="#FEFEFE"/>
<path transform="translate(1212,1126)" d="m0 0h139l6 4 5 12 18 54 14 41 14 40 114 1-1 5-5 4-2 1h-250l-7-6-6-20-27-82-14-43-1-2v-6z" fill="#FEFEFE"/>
<path transform="translate(858,316)" d="m0 0 4 4 7 13 3 1h14l2-6 6-12 8 1 9 3v20l11 7 5-1 14-9 7 6 5 5-1 4-8 13 1 4 5 9v2l22-1 4 13v4l-17 9v16l17 9 1 2-4 14-7 1h-14l-7 12 2 5 3 5v15l-5 5-4-1-13-8-5 1-10 6v21l-13 4h-3l-9-16v-2h-17l-2 6-7 13-16-4v-22l-6-2-6-4-4 1-14 9-4-2-9-9 6-11 4-6-2-5-5-9h-21l-3-8-1-8 14-8 3-2v-15l-18-10 2-10 2-6 21-1 6-10v-5l-9-13 1-5 9-9 5 2 12 7 5-1 9-5v-21l8-3z" fill="#FEFEFE"/>
<path transform="translate(631,515)" d="m0 0h14l16 3 13 5 11 6 10 8 9 9 9 14 5 12 4 16v24l-5 19-8 15-7 9-5 6-10 8-14 8-14 5-11 2h-20l-15-3-16-7-12-8-9-8-10-13-7-14-4-13-1-5v-26l4-16 8-16 8-11 10-10 14-9 11-5 14-4z" fill="#FEFEFE"/>
<path transform="translate(793,1131)" d="m0 0h134l4 3-1 9-21 63-14 43-9 27h-148l3-10 15-45 14-41 15-43 4-4z" fill="#FEFEFE"/>
<path transform="translate(1419,566)" d="m0 0 2 1v8l-5 8-9 11-8 9-1 3 4 2 6 7 1 3v10l-4 9-7 8-10 5-13 2-11 32-14 29-12 19-13 16-17 17-15 11-17 9-17 6-19 4-13 1h-11l-20-2-23-5-24-8 4-16 10-36 7-11 12-16 2-1 12 5 18 4 8 1h22l17-3 17-6 16-8 11-7 12-9 13-11 20-20 11-14 10-16 10-14 9-11 9-10 14-11z" fill="#FEFEFE"/>
<path transform="translate(888,742)" d="m0 0h3l3 23 5 16 7 13 8 9 14 9 12 4 12 2h17l21-3 25-7 12-5-4-21v-17h3l5 10 3 12 4 4 6 2h19l21-4 12-3h15l2 1-1 5-8 7-15 9-16 8-12 5-10 3h-15l-5-1-8 10-11 12-14 13-15 11-16 9-16 7-16 4-8 1h-14l-17-3-19-7-14-8-13-12-7-8-9-16-5-13-4-19-1-8v-23l4-4 40-18z" fill="#FEFEFE"/>
<path transform="translate(1489,351)" d="m0 0h11l1 1v26l-1 61-1 22-17 4-13 5-14 9-7 6-10 13-2 3-9-2-80-27-25-9-1-3 9-17 12-17 9-10 7-8 12-11 15-11 13-8 19-10 25-9 21-5z" fill="#FEFEFE"/>
<path transform="translate(1732,1504)" d="m0 0h13l5 2 3 5 17 208-1 9-6 8-7 3h-55l-10-4-6-7-2-4-1-7 6-31 27-132 9-43 3-5z" fill="#FEFEFE"/>
<path transform="translate(1664,1118)" d="m0 0 20 4 31 7-2 10-9 26-10 21-10 16-10 13-11 12-12 11-16 11-18 10-20 8-21 6-25 5-17 2h-8v-6h-17l10-5 2-4v-7l-1-4 12-5 25-11 19-10 18-12 14-11 14-13 9-11 9-12 9-15 9-19z" fill="#FEFEFE"/>
<path transform="translate(775,1328)" d="m0 0h86l2 56 3 37 5 44 6 41v4l5-1h9l2 15-1 5-7 10-7 15-7 19-9 33-4 17-2-2v-6h2l-16-68-12-47 1-16 2-15 9-3 4-4 1-2v-18l-3-17-5-16-7-16-10-16-10-11-5-5-11-10-14-9-3-5z" fill="#FEFEFE"/>
<path transform="translate(1201,528)" d="m0 0h53v178l-8 2h-25l-18-3-2-1z" fill="#FEFEFE"/>
<path transform="translate(1096,1515)" d="m0 0 6 2 14 12 10 10 8 7 13 10 12 8 11 9 13 13 5 8v7l-5 5-9 5-12 4-7 1h-17l-44-9-47-11-6-7-1-7 2-32 3-20 5 1 19 8 5-1 8-11 6-7 5-4z" fill="#FEFEFE"/>
<path transform="translate(1238,1328)" d="m0 0h116l-5 5-9 10-8 13-11 25-15 36-19 45-4 9-3-3-11-23-12-29-12-36-5-21-2-15z" fill="#FEFEFE"/>
<path transform="translate(1357,706)" d="m0 0h1v98l-4 8-5 4-5 2h-205l2-10 7-24 25 8 18 4 13 2h34l17-3 16-5 16-7 14-9 5-4 23-1 1-22 13-17 9-15z" fill="#FEFEFE"/>
<path transform="translate(1362,499)" d="m0 0 11 3 51 17 1 3-1 7v13l3 15 5 12 6 10 9 10 5 5-2 6-12 18-13 20-11 17-13 20-7 11-5-2-16-12-1-2 5-15 14-3 8-4 6-5 6-11 1-4v-9l-3-8-6-8 11-12 9-13 1-3v-8l-3-5-7 4-13 11-8 7-10 11-13 18-7 11h-1z" fill="#FEFEFE"/>
<path transform="translate(869,366)" d="m0 0h19l12 4 10 7 8 8 7 14 2 9v13l-4 13-6 10-6 7-11 7-11 4-6 1h-10l-12-3-10-5-11-10-7-12-3-11v-16l4-13 9-13 10-8 12-5z" fill="#FEFEFE"/>
<path transform="translate(1624,1259)" d="m0 0 6 4 9 10 9 14 6 1 8-4 2 7v13l-4 20-6 16-9 16-11 12-10 5-28 8-12 2 1-13 8-53v-12l-5-8-8-6-11-3-47-1 2-3 32-4 24-5 20-6 15-6z" fill="#FEFEFE"/>
<path transform="translate(464,1464)" d="m0 0 13 2 18 2 3 1 3 85 5 158v26l-16 1-1-1-25-272z" fill="#FEFEFE"/>
<path transform="translate(917,1528)" d="m0 0h5l2 2 3 11 2-1 2-4h1l13 81v8l-4 6-6 3-20 2h-22l-21-2-7-4-3-6 1-10 9-34 7-21 10-21 4-4 4 8 4-4 5-8z" fill="#FEFEFE"/>
<path transform="translate(1011,1087)" d="m0 0 2 1 10 188v11h-64l3-11 7-21 7-28 7-37 9-38 13-45z" fill="#FEFEFE"/>
<path transform="translate(1023,465)" d="m0 0h8l8 6 5 8 5 15 6 9 6 5-2 4-4 2-1 20-4 9-7 6-3 1h-9l-10-4-9-7-3-4-3-1 3 6 9 8 9 4 4 1 2 13 5 10 8 7 6 3-4 4-14 6-15 3h-15l-16-3-15-6 4-3 9-5 6-8 2-5 1-6v-30l-6-4-3-5v-8l3-4 9-4 4-3-1-6-3-7 1-5 15-5 4-4 2-9z" fill="#FEFEFE"/>
<path transform="translate(632,1636)" d="m0 0 7 1 4 5 3 6 4 2h14l6 4 3 6v26l-1 7-24-1v3l19 1 5 1-1 11h-22l-1 3h10l12 1-1 16-5 25-3 10-4 5-5 2-6-1-6-5-9-14-9-19-7-22-4-21-1-11v-23l3-8 5-4 11-5z" fill="#FEFEFE"/>
<path transform="translate(821,1645)" d="m0 0h8l9 6 7-1 7-4h8l6 4 5 8 9 22-1 2-20 8v2l10-3 10-4h3l3 8v3l-17 7h-3v4l18-7h4l6 18 5 22 1 11-3 6-3 3h-10l-12-7-13-10-12-11-11-12-12-17-9-16-7-16v-9l6-9z" fill="#FEFEFE"/>
<path transform="translate(606,426)" d="m0 0 3 1 16 30 22 1 2-6 13-25 1-1 10 1 23 6 3 2v36l16 9 6-2 24-16 5 1 23 23-2 5-15 25v4l8 14v2l37-2 3 7 7 24v5l-16 9-15 8v22l6 2 25 13 1 5-8 31h-38l-2 6-6 10 1 5 10 16 7 11-2 4-23 23-11-6-20-12-11 6-7 4 1 23v13l-7 3-25 7-4-1-13-23-3-6v-2l-8 1h-13l-10 19-7 13-11-2-24-6-1-1v-13l1-24-6-2-12-7-9 5-21 14-4-2-16-16-7-6 1-5 10-16 7-12-9-15-1-2-37 1-7-23-2-8v-5l24-13 7-4-1-21-31-16 1-9 6-24 2-3h36l9-16-1-5-17-26 1-4 23-23 5 1 21 13 5 3 4-1 15-9-1-20v-16l8-3zm59 4-10 19-6 12h-26l-15-28-1-2-8 1-22 6v37l-21 12-22-13-8-5-7 6-14 15 1 4 14 22 3 4-2 5-10 18h-36l-7 27v3l30 15 1 1v26l-23 12-7 4 1 7 6 21 1 2 36-1 8 14 4 6-2 6-13 21-2 3 1 4 19 19 6-2 24-16 5 1 14 8 4 2v36l9 3 19 5h2l15-30v-2h21l6-1 2 5 14 26 3 1 27-8v-15l-1-21 17-10 3-2 5 1 26 16 4-2 15-15 3-4-2-5-16-25 2-5 9-17h36l3-8 5-20-1-3-30-15-1-26 30-16 1-4-8-27-37 2-2-6-9-14 1-5 14-23 2-3-1-4-13-12-7-7-9 5-15 10-5 3-5-1-17-9h-2l1-37-18-5-8-2z"/>
<path transform="translate(369,1408)" d="m0 0h2l7 8 10 9 12 9v14l-10 220-1 13-9 3-4-1z" fill="#FEFEFE"/>
<path transform="translate(1547,278)" d="m0 0h144l10 3 8 7 4 8v73l-6-5-7-8-9-9-11-9-14-11-6-4v-1h36l-1-3-43-1-15-9-19-9v-1l22-1v-2l-34-1-27-9-32-7z" fill="#FEFEFE"/>
<path transform="translate(1465,1116)" d="m0 0 11 6 12 7-2 22-4 20-5 16-7 17-10 18-10 13-9 10-11 11-2 1h-24l-6-17 1-4 8-7 9-9 10-13 13-21 10-21 10-28z" fill="#FEFEFE"/>
<path transform="translate(698,1098)" d="m0 0 1 3-4 9-5 6h-2l3 12v10l-4 10-7 6-12 6h-3l-1 5-7 16-9 16-8 11-12 14-12 10-16 9-5 1-6-12-4-13-2-13v-9l16-8 17-9 16-11 14-12 11-13 7-12 16-15 13-12z" fill="#FEFEFE"/>
<path transform="translate(541,968)" d="m0 0h12l14 3 12 1v35l-5 2-5 10-7 8-2 1h-7l-6-4-5-6v-2h-4l2 4-1 5-7 12v10l3 6-1 4-12 12-4-1-19-14-11-9 6-7 14-15 15-16 7-8-6-8-1-1v-6l3-3 3-1 4 4 2 4h2v-13l3-6z" fill="#FEFEFE"/>
<path transform="translate(1568,885)" d="m0 0 5 2 12 7 5 6 1 2 1 14 4-1 7-8 4-1 3 3v8l-4 6-10 5-1 6 4 5 5 21 6 18 13 4-5 5-10 5-4 1h-20l-12-3-10-5-3-3v-3l10-2h4l-2-26v-8l8-4h2l-1-3-10 4h-10l-5-5v-20l1-7-1-6 4-2 2-4z" fill="#FEFEFE"/>
<path transform="translate(1129,580)" d="m0 0h53v89l-7-6-32-32-8-7-6-6z" fill="#FEFEFE"/>
<path transform="translate(1719,1366)" d="m0 0h1v23l-3 111-1 1h-9l-3-6-8-3 1-11v-11l-5-10-3-67 14-12 8-7z" fill="#FEFEFE"/>
<path transform="translate(784,1348)" d="m0 0 5 2 14 11 11 11 11 15 10 19 6 18 3 17v18l-4 5-2 1h-17l-18-61-12-36z" fill="#FEFEFE"/>
<path transform="translate(1583,544)" d="m0 0 88 2 19 1v10l-5 23-6 18-9 19-10 16-10 13-11 12-11 11-17 13-18 11-16 8-21 8-24 6-25 3h-24l-25-3-21-5-20-7-6-3 1-4 10-16 15-23 16-25 15-23 5-7 21 5h19l15-3 12-5 11-6 12-11 6-7 7-12 4-11 2-7zm2 4-5 15-7 13-9 11-11 9-14 8-15 5-12 2h-16l-16-3-6-1-15 23-22 34-16 25-5 8 4 3 24 8 19 4 17 2h29l18-2 22-5 21-7 23-11 14-9 12-9 14-12 8-8 9-11 10-14 9-16 7-15 6-18 4-19v-7l-7-1-83-2z"/>
<path transform="translate(1715,1515)" d="m0 0 3 1-2 11-15 63-3 6-6 4-3 1h-76l-4 18-3 7-5 3h-44l-5-4-1-6 5-18h-65v-4l199-1 5-4 5-18 13-55z"/>
<path transform="translate(624,1280)" d="m0 0h261l-1 6-5 4h-249l-5-4z" fill="#FEFEFE"/>
<path transform="translate(1684,1396)" d="m0 0h2l3 62-7-1-3-5-2-1-51-1 3-29 8-3 19-7 20-10z" fill="#FEFEFE"/>
<path transform="translate(1379,1501)" d="m0 0 2 3 12 44-12 10-17 13-15 12-4 1-14-23 2-4 9-9 9-11 10-12 14-19z" fill="#FEFEFE"/>
<path transform="translate(634,511)" d="m0 0h9l14 2 16 5 16 9 14 12 10 13 7 14 4 12 2 11v22l-4 17-7 16-8 11-9 10-10 8-12 7-17 6-12 2h-18l-15-3-14-5-15-9-12-11-9-11-8-15-5-17-1-5v-24l4-17 6-14 9-13 9-10 12-9 16-8 13-4zm-3 4-16 3-13 5-11 6-10 8-9 9-9 14-6 14-3 13v26l4 15 5 12 9 13 8 9 12 9 16 8 13 4 7 1h20l14-3 13-5 12-7 12-10 8-10 8-14 4-10 3-13v-24l-4-16-5-12-7-11-9-10-9-8-14-8-13-5-16-3z"/>
<path transform="translate(791,1611)" d="m0 0 2 2 6 15v3l13-4h2l-2 22-7 10-1 3v9l4 10v10l-5 47h-16v-23l3-90z" fill="#FEFEFE"/>
<path transform="translate(747,1233)" d="m0 0 1 3-13 38-1 2h-104l-4-8-5-14v-2l6 2 14 6 17 4h27l17-4 16-7 12-7 12-9z" fill="#FEFEFE"/>
<path transform="translate(1511,1396)" d="m0 0h4v9l-2 18h-88l2-5 6-7 10-7 8-4 14-3z" fill="#FEFEFE"/>
<path transform="translate(1489,351)" d="m0 0h11l1 1v26l-1 61-1 22-17 4-13 5-14 9-7 6-10 13-2 3-9-2-80-27-25-9-1-3 9-17 12-17 9-10 7-8 12-11 15-11 13-8 19-10 25-9 21-5zm-3 4-18 2-23 5-23 8-24 12-12 8-13 10-12 11-11 11-10 13-9 14-5 9 1 3 107 36 10-13 7-7 14-9 13-6 17-4 1-9 1-56v-38z"/>
<path transform="translate(1480,1238)" d="m0 0 6 1 29 15 3 4v7l-5 4-9 2-7 3h-8l-23-6-19 3-11-1-4-3v-5l8-7 17-8 18-7z" fill="#FEFEFE"/>
<path transform="translate(1298,1590)" d="m0 0h1l1 5 3 92v9h-16l-1-2-8-82v-7l11-8z" fill="#FEFEFE"/>
<path transform="translate(1679,1469)" d="m0 0 4 2 3 4v10l-2 7-9 3-3 6h-50l1-19 1-8 50-1z" fill="#FEFEFE"/>
<path transform="translate(1273,657)" d="m0 0h53v10l-11 9-15 11-16 9-9 4h-2z" fill="#FEFEFE"/>
<path transform="translate(1405,1459)" d="m0 0h1l-1 51-2 68-4-2-7-21 1-3 3-2-2-10-12-43 5-9 12-19z" fill="#FEFEFE"/>
<path transform="translate(870,362)" d="m0 0h17l13 4 10 6 9 8 7 11 4 12 1 6v11l-3 12-6 12-9 10-10 7-10 4-12 2-13-1-12-4-10-6-10-10-6-11-3-9-1-5v-14l3-12 6-11 9-10 9-6 12-5zm-1 4-12 4-9 6-6 5-8 12-4 13v16l4 13 7 11 10 9 10 5 12 3h10l13-3 11-6 8-7 7-11 4-10 1-5v-13l-3-12-6-11-10-10-11-6-9-3z"/>
<path transform="translate(1560,1601)" d="m0 0h49l-4 19-4 5h-44l-2-3 2-10z" fill="#FEFEFE"/>
<path transform="translate(1241,1591)" d="m0 0 5 2 20 11v2l-8 7-15 16-8 7h-7l-8-3-4-7 13-18z" fill="#FEFEFE"/>
<path transform="translate(1388,1556)" d="m0 0 2 2 7 21-2 10-2 13-1 1h-17l-9-11-8-11 5-5 12-10z" fill="#FEFEFE"/>
<path transform="translate(1083,1503)" d="m0 0h4v14l-10 11-6 8-9-3-13-6-1-20 6-1 24-2z" fill="#FEFEFE"/>
<path transform="translate(1736,1515)" d="m0 0 3 1v188l-9 6-25 14h-3l1-4 28-16 4-1v-187z"/>
<path transform="translate(1462,1720)" d="m0 0h208v4h-209v-3z"/>
<path transform="translate(1622,1422)" d="m0 0h3l-1 18-1 10h-32v-15l1-8 1-1 19-2z" fill="#FEFEFE"/>
<path transform="translate(1590,1474)" d="m0 0h30v10l-2 17h-28l-1-2z" fill="#FEFEFE"/>
<path transform="translate(848,1617)" d="m0 0h4l5 22v3l-10 3-4 3h-5l-9-6-5-1-3-16 19-6z" fill="#FEFEFE"/>
<path transform="translate(1669,562)" d="m0 0 4 1-3 14-6 17-8 16-7 12-9 12-9 10-7 8-8 7-13 10-16 10-16 8-21 8-7 1v-4l21-7 21-10 14-9 13-10 10-9 10-10 10-13 11-18 8-17 6-19z"/>
<path transform="translate(642,1620)" d="m0 0 32 1-4 20-2 7-4-1h-14l-4-5-4-6-4-4 3-11z" fill="#FEFEFE"/>
<path transform="translate(1071,893)" d="m0 0h3l-1 6-9 15-13 16-16 16-13 10-17 11-22 11-19 7-23 6-11 2-1-4 32-8 24-9 21-11 15-10 11-9 12-11 9-10 12-17z"/>
<path transform="translate(452,1091)" d="m0 0 3 1 6 22 8 19 9 16 8 10 8 9 12 9 15 8 19 5 7 1h24v4l-6 1h-14l-16-2-18-6-15-8-13-11-7-7-10-14-9-16-8-21-4-16z"/>
<path transform="translate(921,1507)" d="m0 0h6l1 21h-2v-2l-8-1-13 2-4 4-2 4h-2l-2-19v-7l7-1z" fill="#FEFEFE"/>
<path transform="translate(445,1236)" d="m0 0 5 2 11 7 15 7 21 6 13 2h32l19-3 21-6 8-1v3l-21 7-20 4-9 1h-28l-19-3-20-6-16-8-11-7-2-4z"/>
<path transform="translate(437,763)" d="m0 0 9 1 5 4 3 7-2 9-7 6h-10l-7-6-2-8 3-8 5-4z" fill="#FEFEFE"/>
<path transform="translate(1048,1580)" d="m0 0 10 3 31 10 30 7 15 2h24l12-3 8-5h3l-1 4-8 5-9 3-7 1h-21l-26-4-27-7-27-9-8-4z"/>
<path transform="translate(1262,1439)" d="m0 0 3 4 9 20 6 12-1 6-10 24h-1l-2-16-4-41z" fill="#FEFEFE"/>
<path transform="translate(1122,1667)" d="m0 0h116v4h-116z" fill="#FEFEFE"/>
<path transform="translate(1426,1602)" d="m0 0h3l-1 5-17 28-13 22-6 7-9 5-31 5-10 1v-4l38-6 8-4 5-5 17-28 15-25z" fill="#FEFEFE"/>
<path transform="translate(619,1653)" d="m0 0 3 1 3 32 4 23 5 17 8 17 7 9 7 6v3l-5-1-7-6-9-14-6-14-5-18-4-23-2-25v-6z"/>
<path transform="translate(815,1667)" d="m0 0 4 1 13 23 12 18 8 10 11 12 12 9 10 5 8 2-1 4-10-2-11-6-10-8-13-13-12-16-13-21-8-15z"/>
<path transform="translate(1578,1469)" d="m0 0h2l4 4 2 1v26l-1 1h-7l-4-6-7-3 2-14 6-7z" fill="#FEFEFE"/>
<path transform="translate(1106,1328)" d="m0 0h4l-2 5-12 22-8 16-8 17-9 27-3 18-4-1 2-16 6-20 10-24 12-24z" fill="#FEFEFE"/>
<path transform="translate(573,1072)" d="m0 0 4 1 8 14 6 16 3 12 2 19v11l-2 18-4-1 1-14v-16l-2-16-5-19-8-17-4-7z"/>
<path transform="translate(1299,1189)" d="m0 0 7 1 5 5 1 3v8l-4 5-2 1h-7l-6-5-1-2v-10l5-5z"/>
<path transform="translate(438,759)" d="m0 0 8 1 6 4 4 5 1 2v11l-4 7-8 5h-9l-8-4-5-8v-10l3-6 6-5zm-1 4-6 3-4 6-1 5 2 7 7 6h10l7-6 2-9-3-7-5-4z"/>
<path transform="translate(1577,1427)" d="m0 0h11v13l-1 11-5 4-1 2-9 2 4-29z" fill="#FEFEFE"/>
<path transform="translate(839,1193)" d="m0 0 6 1 4 4 1 2v8l-4 6-4 2h-6l-5-5-1-2v-7l3-5 3-3z"/>
<path transform="translate(1406,1261)" d="m0 0h23v7l1 3 5 2v1h-25l-4-11z" fill="#FEFEFE"/>
<path transform="translate(1435,689)" d="m0 0 16 4 22 4 11 1h22l2 3-1 1-7 1h-11l-23-2-23-5-9-4z"/>
<path transform="translate(935,1615)" d="m0 0 3 1v3l-18 4-9 1h-27l-13-2-3-2v-2l14 1h30l19-3z"/>
<path transform="translate(1411,388)" d="m0 0 4 1-1 3-16 9-17 13-12 11-3-1 2-4 8-8 14-11 14-9z"/>
<path transform="translate(1480,367)" d="m0 0h5v4l-25 4-21 6-8 3h-3v-4l24-8 20-4z"/>
<path transform="translate(1655,295)" d="m0 0h41v4h-41z"/>
<path transform="translate(1681,1461)" d="m0 0 6 1 5 4 2 4v11l-2 11h-4l1-8v-9l-4-7-4-2z" fill="#FEFEFE"/>
<path transform="translate(1365,290)" d="m0 0 7 1 2 2v8l-4 3-7-1-2-3v-6z"/>
<path transform="translate(1338,290)" d="m0 0h5l4 4v6l-4 4-7-1-3-4 1-6z"/>
<path transform="translate(1576,1461)" d="m0 0h4l-1 4-9 6-5 10-2 11h-4l3-17 5-8z" fill="#FEFEFE"/>
<path transform="translate(1311,290)" d="m0 0 6 1 3 4-1 6-4 3-6-1-3-3v-6z"/>
<path transform="translate(1402,295)" d="m0 0h36l1 4h-37z"/>
<path transform="translate(1246,1398)" d="m0 0 2 2 8 23-6-1-4-4-1-2v-11z" fill="#FEFEFE"/>
<path transform="translate(894,1584)" d="m0 0h27v3l-2 1h-31v-3z"/>
<path transform="translate(1121,1543)" d="m0 0 4 1-2 4-8 7-10 9h-4l1-4 8-7z"/>
<path transform="translate(1325,753)" d="m0 0h1v13h-13v-2l8-7z" fill="#FEFEFE"/>
<path transform="translate(1365,1627)" d="m0 0 10 2 11 3 2 3-5 1-18-5z" fill="#FEFEFE"/>
<path transform="translate(954,450)" d="m0 0h9l-6 7-5 7-3-2 1-5z" fill="#FEFEFE"/>
<path transform="translate(1180,1632)" d="m0 0 3 2 5 12-1 5-3-2-5-12z" fill="#FEFEFE"/>
<path transform="translate(1682,821)" d="m0 0 5 1 8 8-1 3-4-1-8-8z"/>
<path transform="translate(822,1469)" d="m0 0h7l-1 17-2-1z" fill="#FEFEFE"/>
<path transform="translate(1094,329)" d="m0 0 4 1 8 8-1 3-4-1-8-8z"/>
<path transform="translate(1161,1638)" d="m0 0h3l5 15-4 1-4-12z" fill="#FEFEFE"/>
<path transform="translate(1362,1639)" d="m0 0 14 3 1 4-8-1-8-2z" fill="#FEFEFE"/>
<path transform="translate(1721,820)" d="m0 0 4 1-3 5-6 6-4-1 6-8z"/>
<path transform="translate(1072,330)" d="m0 0 4 1-6 8-3 3-4-1 3-5z"/>
<path transform="translate(1692,851)" d="m0 0 3 1-2 4-8 8h-2l-1-3z"/>
<path transform="translate(1103,298)" d="m0 0h2l-1 5-8 8-3-1 2-4z"/>
<path transform="translate(1713,851)" d="m0 0 4 1 8 8-1 3-4-2-7-7z"/>
<path transform="translate(1064,299)" d="m0 0 4 2 7 7v3l-4-1-8-8z"/>
<path transform="translate(817,1628)" d="m0 0 2 3 1 11-4 2z" fill="#FEFEFE"/>
<path transform="translate(1465,1271)" d="m0 0 8 2v1h-17l4-2z" fill="#FEFEFE"/>
</svg>
