<?xml version="1.0" encoding="UTF-8"?>
<svg version="1.1" viewBox="0 0 2000 2000" width="1280" height="1280" xmlns="http://www.w3.org/2000/svg">
<path transform="translate(0)" d="m0 0h2e3v2e3h-2e3z" fill="#FDFDFD"/>
<path transform="translate(1142,232)" d="m0 0h11l26 2 23 4 22 6 19 7 19 9 16 10 11 9 7 6v2l3 1 10 13 8 15 4 15v18l-1 6 63 1 37 1 10 3 8 6 6 7 4 11 1 208 5 4 3 7v99l-3 6-5 5v10l5 4 3 7v98l-4 8-3 3h-2l1 310 2 10v15l-1 6v11l4 6 7 2 14-3h9l8 3 6 7 2 9v14l3 4 9 2 8-1h12l10 3 6 4 8 9 5 10 3 10 1 1 1-94h-14v-2h14v-97l65-1-9-5-8-7-7-10-5-13-8-54v-2h23l1-23v-25l-4-15-9-19-5-6v-2l-4-2-6-4-16-4-31-3-16-5-15-8-9-8-4-8-2-9v-8l3-12 6-9 7-6 7-3h11l22 6 23 3 14 5 12 9 9 11 8 16 4 15 2 16v25l-2 22-1 5-2 43-1 3h32v-16l-10-30-6-26-5-31-3-29-2-42v-68l1-32 3-15 7-14 10-12 10-7 11-5 11-2 13 1 11 4 11 8 8 11 5 16 1 7v36l-5 42-6 35-7 27-8 23-9 21-11 19-10 17-7 19-9 30-2 13h27l1-7 5-18 7-34 6-24 5-23 6-16 8-15 9-13 13-15 12-11 14-10 16-8 16-7 10-3 9-1 13 2 10 5 5 5 3 4 2 7v8l-3 12-7 11-8 8-11 6-16 5-36 4-17 4-16 7-12 8-12 11-8 9-6 21-9 43-7 25h20l-1 14-5 38-4 13-6 10-9 10-10 6 110 1v97h16v2h-16v95h16v1h-16v95h16v2h-16v95h16v1h-16v95h16v2h-16v109h-2v-109h-140l-1 6-10 23-12 23-14 23-8 12-13 19-9 13 11 3 101 32 37 12 20 8-1 9 17 4 29 8 6 4 1 3v8l-12 37-8 16-10 11-11 5-13 4-5 1h-13l-5-3-1-7 3-6 8-7 8-6 4-6 2-8v-14h-10l-5 19-35-4-45-7-46-5-35-4-29-6-24-8-16-8-11-7-10-8-9-9-7-11-5-11-3-11-1-7v-17l4-26 8-30 11-32 5-13-17-3-7-1-1 63-4 10-6 8-9 6-12 3h-70l-4 25-7 30-4 12h-10l2 18 1 20-2 12-4 6-3 3h-116l-5-3 1-8 7-9 10-7 15-6 24-6 25-5 2-16h-9l-3-25-4-41-425 1-13 12-14 16h-2l-2 4-11 13-15 20-12 18h79v1l-114 1-52-1v-1h44l-5-12-7-11-8-10-9-10-10-9-14-7-12-3-9-1h-13l-25 3-7 46-1 3 3-1 6 7 10 6 18 7 28 10 20 7 6 4 1 1v5l-8 5-9 2h-110l-2-6-1-14v-21l1-19-5-37-16-5-10-6-9-10-4-11-1-8 1-13 4-12 8-12 11-11 7-5v-10l-6-81-5-51-6-61-3-44-1-24v-45h-16l-4 19-10 42-14 49-18 59-17 53-16 48-14 43-12 36-14 39-15 37-11 24-2 5 9 18 8 10 10 9 17 12 13 9 6 5 3 5 1 7-3 5h-8l-17-5-23-9-49-17-18-7-1-1 1-9 8-30 3-16 4 1 1-16 6-61 6-40 3-17v-8l-12-20-8-16-9-19-4-8-14-35-3-9-6-19-7-24-4-17-4-19-4-23-4-30-3-35v-73l3-39 4-32 1-3-11-8-9-9-6-10-5-13-2-8-24-3-21-5-16-6-16-8-11-7-12-11-7-8-8-16-2-8v-14l3-12 6-11 8-10 11-10 16-10 15-7 18-6 18-4 14-2 13-1h21l21 2 25 5 23 8-1-5 6-11 6-12 9-16 15-25 7-11-2-5-4-8-3-12-1-9v-9l3-14 7-14 5-6 12-9 13-9 7-8 3-6 4-20 6-10 8-7 11-5 16-2 6-5 7-11 8-7 9-4 14-2 12-5 4-1h8l10 4 5 6 1 3v9l-4 6-1 2 3 8v10l12-2 5-5 6-2 70-9 5-3 8-7 8-5 8-3h14l6 4 4 5 2 2 84-11h2l-1-103-9 6-14 4-9 1h-14l-17-2-14-4-1 6-5 10-9 10-11 7-11 4-5 1h-24l-16-5-10-5-11-9-6-8-2-5-19 8-20 4h-13l-15-3-9-4-8-6-7-7-7-14-1-4v-18l4-11 6-9 9-8 10-5 10-2-1-8 3-12 6-8 8-6 6-2h14l10 4 2 1 2-9 6-11 9-11 10-9 13-8 11-5 14-4 8-1h15l15 3 12 5 11 7 11 10 7 10 6 12 3 11v3l14 1 15 4 14 7 5 4v-157l3-10 6-8 8-7 8-3 6-1h158l-2-12v-9l3-14 5-12 8-12 11-12 11-10 15-10 23-12 24-9 28-7 19-3z" fill="#010101"/>
<path transform="translate(784,430)" d="m0 0h270l27 9 23 5 21 3 1 1v16l-3 14-300 1-5 3-1 2v44l4 5 99 1h445l6-2 2-7v-37l-3-7-4-2-209-1 6-19 2-11 36-6 22-6 17-6h171v688l-3 1h-11l-10 3-13 8-18 7-8 6-7 8-2 9v2h-156v2h158l5 3 10 1v19l4 15 6 10 8 6 11 3 8 1 3 5 3 15v6l-6 5-9 13-7 16-7 24-7 27-9 10-7 7-14 10-21 11-21 7-25 5-22 2h-29l-19-2v11l-17 1-18-2h-14l-14-12-6-5v-1h22v-85l2-14v-32l-2-14v-113h-80l-16-8-15-6-20-5-14-2-20-1-23 2-22 5-19 7-16 8h-94v258h57l8 7 12 10 15 10 15 8 21 8 22 5 20 2h14l19-2 19-4 17-6 21-10 12-8 12-9 5 3 17 14 2 2 2 8 4 10 3 17 5 8 8 5 16 5 34 6 13 10 13 11 10 8 16 13 15 12v36l1 47-1 1h-308l3-3 19-11 16-12 15-15 10-15 5-11 3-12v-14l-3-11-6-10-8-6-9-4-13-2-15 1-21 5-20 7-21 9-19 9-20 12-16 12-10 9-8 7-9 11-10 14-10 18-7 12h-11v-690l19-10 10-6v13h169v-77l7 1 21 2v74h169v-147h-103l-1-1-3-16-4-11h114v-147h-169v109h-15l-13 2v-111h-169v134l-29 4h-3z" fill="#7493E4"/>
<path transform="translate(1272,172)" d="m0 0h36l30 2 36 4 17 3 9 2 26 6 25 7 27 9 27 11 13 6 12 5 13 7 4-2 7-8 8-7 15-12 19-11 19-8 18-5 21-3h24l21 3 19 5 21 9 15 9 12 9 12 11 8 8 10 13 10 16 9 20 6 21 3 22v23l-3 22-6 21-9 20-10 16-11 14-17 17-3 2 4 5 10 21 4 8 9 21 13 36 8 25 10 38 6 30 5 30 4 32 2 25 2 43v21l-12-6-14-2-12 2-13 5-22 10-14 10-13 11-11 12-8 11-8 13-8 18-4 14-5 22-6 27-6 28-6 21h-27v-8l7-25 8-24 8-16 8-13 7-12 11-26 8-25 7-30 6-40 3-27v-36l-3-15-4-10-8-10-11-7-9-3-13-1-14 3-13 7-7 6-9 12-5 11-3 15-1 36v68l2 38 3 29 6 36 6 24 9 27v9l-1 7h-32l2-46 2-13 1-14v-25l-3-21-5-15-6-11-9-11-13-9-12-4-28-4-17-5h-11l-10 5-7 8-4 10-1 6v8l3 11 5 8 9 7 17 8 11 3 31 3 16 4 6 4 5 5 6 8 8 17 4 15v25l-1 21-1 2h-23l2 9 7 47 5 13 8 11 12 9 5 2v1h-67v97h-14v2h14v94l-2 1-5-15-7-11-8-7-7-3-5-1h-12l-9 1-9-3-3-4v-17l-3-8-6-5-6-2h-9l-15 3-7-3-4-6v-11l1-6v-15l-2-10v-310l5-4 3-7v-98l-4-8-4-3v-10l7-8 1-3v-99l-4-8-4-3-1-208-4-11-8-9-10-5-5-1-37-1-64-1 1-7v-18l-4-15-8-15-8-10-7-8-14-11-14-9-17-9-21-8-21-6-20-4-17-2-16-1h-11l-26 2-24 4-26 7-21 8-20 10-15 10-13 11-8 8-9 13-6 12-3 10-1 9 1 19h-99l2-4 8-7 13-11 11-9 13-10 11-9 10-7 12-9 15-10 7-5h2v-2l8-4 14-9 20-12 24-13 16-8 19-9 11-5 40-15 16-5 26-7 22-5 32-5 27-3z" fill="#F8DCD4"/>
<path transform="translate(496,251)" d="m0 0h29l27 3 19 4 21 7 16 7 22 14 11 9 11 10 4 5v2l3 1 11 15 8 16 5 14 3 18v23l-6 25-8 18-11 17-5 6-10 2-17 5-15 8-9 7-9 8-9 13-5 12-1 3-12-4h-14l-9 4-7 6-4 7-2 13v5l-15 5-11 8-7 9-4 9-1 4h-4v2l-11 9h-2v2l-8 6h-2l-2 4-8 6h-2v2l-13 10-12 9-4 1v2l-7 4-10 6-15 8-10 4-13 4-10 2-18 1-20-3-16-6-14-8-11-8-11-9-4-4v-2h-2l-2-5h-2l-10-16-7-15-10-30-4-21-2-19v-33l2-16 4-22 7-22 9-21 6-12 12-20 9-12 7-9 9-11h2l2-4 6-7 11-9 7-7 17-13 18-12 17-10 14-7 10-4 18-7 16-5 24-6 24-4z" fill="#F8DCD4"/>
<path transform="translate(637,872)" d="m0 0h1v12l-4 43-1 6 12 1 8 1 25 1 20-1 30-5 12-3h3v2l-26 6-23 3h-38l-17-2h-6l-2 17-1 3-5-2-12-9-6-4 10 48 11 53-12 6 7 18 7 25 9 43 9 53 8 55 6 36v7l-16 3v79l-2 50-1 5h-1v-20l1-26 1-88-8 2-35 4-16 1h-49l1 53 3 51 6 63 6 60 9 122 5 53 5 39 1 10 8 1 7 1h12l7-2v2l3-1 6 7 10 6 18 7 28 10 20 7 6 4 1 1v5l-8 5-9 2h-110l-2-6-1-14v-21l1-19-5-37-16-5-10-6-9-10-4-11-1-8 1-13 4-12 8-12 11-11 7-5v-10l-6-81-5-51-6-61-3-44-1-24v-45h-16l-4 19-10 42-14 49-18 59-17 53-16 48-14 43-12 36-14 39-15 37-11 24-2 5 9 18 8 10 10 9 17 12 13 9 6 5 3 5 1 7-3 5h-8l-17-5-23-9-49-17-18-7-1-1 1-9 8-30 3-16 4 1 1-16 6-61 6-40 24-130 7-46 4-38 6-71 4-34 2-12-19-2 5-25 11-51 10-40 9-30 11-29 11-24 12-22 9-13-23-4 1-9 2-1v8l26 3 16 1 52 1h52l23-3 16-5 5-2-1-9-20-94 1-3 18 13 7 4 1-16 5-50v-5l-4 8h-2l2-6 5-10z" fill="#DEA301"/>
<path transform="translate(381,900)" d="m0 0 5 2 13 8 9 4 7 21 7 13 10 13 2 2v32l-1 43-2 10 12 1 12 2-7 11-9 16-10 19-10 24-9 25-12 43-11 48-10 47-1 2 17 1 2 1-1 12-5 44-6 73-5 41-10 59-15 80-2-3-12-20-8-16-9-19-4-8-14-35-3-9-6-19-7-24-4-17-4-19-4-23-4-30-3-35v-73l3-39 4-32 1-3-11-8-9-9-6-10-5-13-2-8-24-3-21-5-16-6-16-8-11-7-12-11-7-8-8-16-2-8v-14l3-12 6-11 8-10 11-10 16-10 15-7 18-6 18-4 14-2 13-1h21l21 2 25 5 23 8-1-5 6-11 6-12 9-16 15-25 7-11z" fill="#F8DCD4"/>
<path transform="translate(779,914)" d="m0 0h3v720l-9 24-11 34-7 24-1-4 13-61 6-35 2-20v-42l-3-21-7-25-8-18-9-16-10-13-9-10-14-11-14-8-13-5-20-4h-25l2-56 1-79 12-3h4l-7-43-8-55-9-53-9-43-7-25-7-18 2-2 10-5-16-75-5-26 7 4 17 12 2-20 1-1 13 1 10 1h38l23-3 26-6 23-8z" fill="#F8DCD4"/>
<path transform="translate(838,1675)" d="m0 0h425l2 12 5 49v5h9v9l-1 7-6 2-37 8-18 6-12 7-6 7-3 6-1-2-2 1-13 2-36 6-44 6-46 5-58 4-24 1h-108l-56-3-56-5-40-5-20-3-2-2 7-4v-5l-6-4-31-11-23-8-16-7-9-7-4-4h-2l3-23 4-26 7-2 19-2h13l14 2 12 4 10 6 10 9 7 7 12 16 6 10 3 7v3l13 1 30-1 2-4 9-14 13-17 9-11 7-9h2l2-4 10-10 7-8z" fill="#F8DCD4"/>
<path transform="translate(1129,235)" d="m0 0h38l24 3 25 6 24 8 21 10 14 9 13 10 8 7 11 14 8 15 4 16v14l-3 14-8 16-10 13-10 10-18 13-16 9-23 10-19 6-23 5-13 2-12 1-4 19-6 15-8 12-11 12-14 9-12 5-15 2 4-4 10-8 8-11 6-12 4-13 1-6 1-21h-9l-24-4-23-6-22-8-19-9-16-10-16-13-11-11-9-14-5-11-2-8-1-12 2-14 6-15 9-13 9-10 10-9 16-11 21-11 26-10 28-7 19-3z" fill="#F55E59"/>
<path transform="translate(976,1126)" d="m0 0h21l20 3 19 6 17 8 12 8 10 8 6 5 7 8 11 14 10 18 7 19 4 20 1 10v14l-3 22-6 20-8 17-10 15-9 10-5 6-11 9-11 8-17 9-16 6-19 4-8 1h-23l-18-3-17-5-16-7-13-8-13-10v-2l-4-2-9-9-11-15-9-16-6-15-4-16-2-14v-26l3-17 5-16 7-16 8-13 11-14 11-11 13-10 17-10 21-8 19-4z" fill="#C6E4DF"/>
<path transform="translate(526,713)" d="m0 0h8l10 4 5 6 1 3v9l-4 6-1 2 3 8v10l12-2 5-5 6-2 70-9 5-3 8-7 8-5h3v2l-11 6-9 9-9 15-9 17-9 15-15 26-16 27-10 14-9 10-13 9-12 4h-14l-12-3-12 22-14 25-11 17-1 4 13 6 16 4 7 1h18l13-2 16-5 16-8 14-10 12-11 10-11 14-21 3-1 2-6 3-4-1 18-5 48-1 7-4-1-17-12-4-3 5 25 16 76-1 5-17 6-17 3-10 1h-52l-52-1-25-2-17-3-1-8v-75l-7-8-9-14-6-14-3-12-16-8-10-7-6-9-3-9-2-15v-9l3-14 7-14 5-6 12-9 13-9 7-8 3-6 4-20 6-10 8-7 11-5 16-2 6-5 7-11 8-7 9-4 14-2 12-5z" fill="#010101"/>
<path transform="translate(1625,1442)" d="m0 0 5 1 7 19 5 18 2 13v29l-4 24-8 26-10 23-12 23-12 20-12 18-11 16-10 14-10 3h-12v1h15l7-2 7 1 110 35 36 12 17 6-5 25-10 42-1 1-17-1-33-5-35-5-73-8-29-6-21-7-16-7-17-11-12-11-3-5 8-6 5-10 1-4-1-13-6-12-6-5-5-2-11-1v-8l5-26 9-31 10-28 11-29 10-28 4-17v-17l-3-12-2-7 9-3 30-8 36-12 37-14z" fill="#F55E59"/>
<path transform="translate(1652,206)" d="m0 0h28l17 3 16 5 21 10 14 10 13 12 11 13 8 13 8 17 5 16 3 17v28l-4 20-5 15-8 16-8 12-9 11-10 10-13 10-16 9-15 6-14 4-12 2h-31l-20-4-19-7-15-8-12-9-10-9-8-8-11-15-9-17-7-21-3-16v-31l4-20 7-19 9-16 8-11 11-12 10-9 15-10 16-8 15-5z" fill="#FBFCFC"/>
<path transform="translate(984,1094)" d="m0 0 20 1 19 3 17 5 16 6 13 7 80 1 1 113 2 14v32l-2 14-1 85-21 1 14 12 5 4 4 2 3 4 14 7 12 11 6 8 10 5 12 2v33h-13l-40-7-15-5-8-5-4-7v-4h-2l-4-16-4-9-2-7-14-12-7-5-6 4-10 7-13 8-19 9-19 6-22 4-12 1h-14l-26-3-22-6-21-9-14-8-16-12-12-11-7-1h-49l-3-1v-258l94-1 23-11 19-6 22-4zm-8 32-24 4-19 7-16 8-14 10-13 12-9 10-9 13-8 15-6 16-4 18-1 7v26l3 19 5 16 7 16 10 16 11 13 7 7h2l2 4 14 10 18 10 20 7 15 3 10 1h21l19-3 17-5 19-9 11-7 13-10 5-5 9-10 10-14 8-15 7-19 4-20 1-15v-9l-3-22-5-17-8-18-9-14-9-11-6-7-8-7-15-11-17-9-17-6-18-4-9-1z" fill="#010101"/>
<path transform="translate(1430,1237)" d="m0 0h5l-1 11v16l4 17 7 14 9 10v2l4 2 10 6 12 5 24 9 5 1h15l11-4 10-7 8-7 7 6 9 10 8 10 14 18 13 18 10 16 13 22 11 20v3l-26 11-36 14-34 12-35 10-26 6-3-1-12-22-11-23-13-29-9-24 2-10 3-22h-3v13l-4 17-6 10-8 10-9 10-11 10-15 11-25 15-17 8-15 5-20 4-20 2h-29l-46-2v-47l2-1 36-4 27-5 26-7 19-8 15-9 11-10 7-11 5-11 7-25 10-39 6-18 8-14 9-10 9-7 12-5z" fill="#DEA301"/>
<path transform="translate(518,1295)" d="m0 0h16l1 45 2 41 4 49 8 78 6 79 1 14v10l-11 9-8 8-7 11-4 12-1 14 2 11 4 8 8 9 14 7 11 3 1 1 5 37-2 31-7-1-19-7-20-9-28-14-22-14-15-11-3-2v-2l-5-2-5-4v-2l-4-2-12-11-2-1v-2h-2l-6-7-11-11v-2l-3-1 17-50 12-36 14-43 14-42 20-64 18-61 10-40 8-34z" fill="#F8DCD4"/>
<path transform="translate(397,1288)" d="m0 0 20 1 47 3 45 2 7 1-2 11-12 50-10 36-21 69-16 51-12 35-28 86-13 37-15 39-13 29-6 12h-8l-11-4-12-8-1-4 5-49 5-44 9-51 15-80 7-41 5-36 4-42 5-60 5-39z" fill="#FCFCFD"/>
<path transform="translate(653,467)" d="m0 0h17l17 4 14 7 11 9 8 9 8 14 4 13v5h9l16 3 12 5 11 7 2 2v73l-6 5-10 5-16 3h-17l-15-2-13-4h-2l-3 10-7 11-7 7-16 8-8 2-12 1-16-2-12-4-11-6-10-9-6-9-1-4-15 7-17 5-8 1h-14l-14-3-12-6-8-7-7-11-3-9-1-11 2-10 7-14 7-7 12-7 8-2h4l-1-10 2-9 5-8 7-6 8-3h13l8 3 4 3 3-9 6-12 9-11 11-10 15-9 14-5z" fill="#9CD0C9"/>
<path transform="translate(1358,1454)" d="m0 0 27 1 29 2 46 5 4 2 8 16 5 9 12-1 4 9 3 14v9l-4 20-9 25-6 15-2 6-24-3-36-6-36-7-23-5-5-4-7-11-3-5v-2h-2l7 14 7 10-2 45-3 39-5 37-6 29-6 22-1 1h-37l-21-1-4-34-7-76-2-37v-71l6 4 16 13 17 14 7 5h2l2-4 9-11 4-6v-2l-4-2-10-8-13-11-20-16-7-6 2-5 6-11 1-1 24-2 22-4 21-7z" fill="#F55E59"/>
<path transform="translate(642,1288)" d="m0 0h2v88l-2 48-5 67-6 61-10 82-10 71-6 42-6 2h-12l-15-3-4-24-6-54-5-63-6-83-6-60-6-63-3-51v-53l49-1 36-3z" fill="#FDFDFD"/>
<path transform="translate(249,966)" d="m0 0h21l21 2 25 5 20 7 16 8 11 7 12 10 8 10 7 14 3 14-1 13-4 12-7 11-11 12-14 10-19 10-24 8-19 4-7 1h-10l2 18 5 13 8 11 9 7 9 4v2h-15l-14-4-10-6-10-9-7-8-6-13-4-14-24-3-21-5-16-6-16-8-11-7-12-11-7-8-8-16-2-8v-14l3-12 6-11 8-10 11-10 16-10 15-7 18-6 18-4 14-2z" fill="#F45E59"/>
<path transform="translate(1840,838)" d="m0 0 2 1-1 9-2 40-5 56-5 40-5 32-7 43-3 17-7 36-5 26-6 27-3 12-1 2h-15v-97h-113l3-2 11-7 8-9 7-14 3-15 6-45h-20l2-10 7-28 8-38 4-13 11-12 11-10 13-8 14-6 17-4 36-4 16-5 11-6z" fill="#F8DCD4"/>
<path transform="translate(1169,939)" d="m0 0h202l1 3-1 140h-202z" fill="#7695E7"/>
<path transform="translate(967,1478)" d="m0 0h22l12 4 9 7 5 7 4 13v13l-3 13-6 12-10 14-7 8-8 7-15 11-19 11-27 14-19 10-17 11-17 12-14 11-10 9-8 7-7 7-7 6-7 8-7 7-9 11-11 13-14 19-10 15h-21l4-14 3-17 14-47 14-41 11-26 10-21 11-19 9-13 12-14 13-12 16-12 18-11 23-12 27-11 22-7z" fill="#9CCFC9"/>
<path transform="translate(976,1126)" d="m0 0h21l20 3 19 6 17 8 12 8 10 8 6 5 7 8 11 14 10 18 7 19 4 20 1 10v9l-5-1-12-5-11-3-9-1h-14l-20 3-21 7-16 8-15 9-15 10-7-6-13-11-13-8-13-6-17-5-11-2-21-1-20 2-11 2h-4v-8l3-17 5-16 7-16 8-13 11-14 11-11 13-10 17-10 21-8 19-4z" fill="#C6E4DF"/>
<path transform="translate(637,872)" d="m0 0h1v12l-4 43-1 6 12 1 8 1 25 1 20-1 30-5 12-3h3v2l-26 6-23 3h-38l-17-2h-6l-2 17-1 3-5-2-12-9-6-4 10 48 11 53-12 6 7 18 7 25 9 43 9 53 8 55 6 36v7l-16 3v79l-2 50-1 5h-1v-20l1-26 1-88-8 2-35 4-16 1h-49l1 53 3 51 6 63 6 60 9 122 5 53 5 39 1 10 8 1 7 1h12l7-2v2l3-1 6 7 10 6 18 7 28 10 20 7 6 4 1 1v5l-8 5-9 2h-110l-2-6-1-14v-21l1-19-5-37-16-5-10-6-9-10-4-11-1-8 1-13 4-12 8-12 11-11 7-5v-10l-6-81-5-51-6-61-3-44-1-24v-45h-16l-4 19-10 42-14 49-18 59-17 53-16 48-14 43-12 36-14 39-15 37-11 24-2 5 9 18 8 10 10 9 17 12 13 9 6 5 3 5 1 7-3 5h-8l-17-5-23-9-49-17-18-7-1-1 1-9 8-30 3-16 4 1 1-16 6-61 6-40 24-130 7-46 4-38 6-71 4-34 2-12-19-2 5-25 11-51 10-40 9-30 11-29 11-24 12-22 9-13-23-4 1-9 2-1v8l26 3 16 1 52 1h52l23-3 16-5 5-2-1-9-20-94 1-3 18 13 7 4 1-16 5-50v-5l-4 8h-2l2-6 5-10zm-180 180-8 11-8 14v3l17 1 8 2 6 4 3 5v6l-4 6-7 4-24 3-16 1-9 24-9 28-3 11 1 4 14-10 16-10 9-6 5-2h11l5 3 2 5-1 8-6 10-11 12-7 8-10 10-10 7-12 4-17 2-13 61v3l28 3 40 3 64 3h73l1-1 2-20 5-19 6-12 2-2h7l5 5 4 7 1 4v20l-2 11v4l13-1 29-5 3-1-2-14-5-33-7-48-3-1-8 4-21 7-21 4-8 1h-9l-8-3-2-4v-8l3-6 4-5 14-10 21-10 21-7 9-2-1-12-8-40-5-19h-3l-7 12-10 13-9 10-8 6-2 1h-8l-4-5-1-2v-13l6-18 12-23 3-5h-94l-27-1zm-60 236-4 25-4 40-6 71-4 32-7 43-22 118-6 39-7 70-1 11 11 8 9 4 4 1h8l13-27 13-32 15-41 13-38 14-43 12-36 21-65 24-79 11-41 12-50v-3l-7-1-63-3-42-3z" fill="#010101"/>
<path transform="translate(942,1604)" d="m0 0h316l5 61v8l-422 1 2-4 11-10 14-11 13-10 20-13 19-11 16-8z" fill="#FDFDFD"/>
<path transform="translate(1654,178)" d="m0 0h24l21 3 19 5 21 9 15 9 12 9 12 11 8 8 10 13 10 16 9 20 6 21 3 22v23l-3 22-6 21-9 20-10 16-11 14-17 17-15 11-16 9-16 7-16 5-15 3-10 1h-29l-19-3-15-4-15-6-14-7-11-7-13-10-14-13-11-14-7-10-11-21-8-24-3-15-1-9v-29l3-20 6-20 7-16 9-16 9-12 9-10 12-12 16-12 18-10 20-8 20-5zm-2 28-20 4-15 5-16 8-12 8-13 11-8 8-9 12-9 15-7 17-4 15-2 11v31l4 20 7 19 8 15 9 12 9 10 8 8 15 11 17 9 21 7 16 3h31l20-4 19-7 15-8 12-9 12-11 9-10 10-15 8-16 5-15 4-20v-28l-3-17-5-16-10-21-10-14-14-15-14-11-14-8-15-7-18-5-13-2z" fill="#9BCFCA"/>
<path transform="translate(1208,762)" d="m0 0h168l1 1v145l-1 1h-168l-1-1v-145z" fill="#F55E59"/>
<path transform="translate(1213,588)" d="m0 0h164l1 1v143h-166v-143z" fill="#FCFCFD"/>
<path transform="translate(650,1424)" d="m0 0h16l17 3 17 6 11 6 12 9 15 15 11 15 9 17 7 17 6 23 3 21v38l-4 33-8 42-9 42-3 22-2 14-4 11h-7l-2-17-7-35-6-34-6-25-8-26-8-19-8-16-8-11-11-13-13-11-16-11-9-7v-10l5-56 3-41z" fill="#F45E59"/>
<path transform="translate(812,939)" d="m0 0h165v143h-165z" fill="#7695E7"/>
<path transform="translate(1015,589)" d="m0 0h165v143h-113l-10-14-10-9-12-7-11-4-9-2z" fill="#7695E7"/>
<path transform="translate(920,480)" d="m0 0h202l-4 11-8 12-10 10-12 7v1h12l16-4 12-6 10-8 8-8 10-15h210l5 4v44l-4 4h-448v-51z" fill="#7695E7"/>
<path transform="translate(363,389)" d="m0 0h11l9 2 10 5 7 6 5 6 11-4h18l12 5 9 8 5 8 3 12 2 2 13 4 10 9 5 9 2 8v12l-3 12-6 10-7 7-10 6-13 4-5 1h-23l-13-4-8-4-7 6-10 4-4 1h-20l-12-4-9-6-8-8-3-4-12 5-14 3h-11l-12-3-10-6-7-9-4-11v-16l4-12 8-11 8-7 11-5 10-2h11l7 1 1-10 5-10 8-9 9-6 11-4z" fill="#9CD0C9"/>
<path transform="translate(1677,663)" d="m0 0h8l12 3 9 5 8 7 6 10 4 13 2 23-2 30-6 46-6 29-9 31-11 27-8 15-9 15-8 16-5 13-5 17h-1l1-16 18-164 1-6h-2l-1 16-19 172-1 5-2-2-9-28-6-27-5-33-3-38-1-30v-60l1-35 3-15 8-16 9-10 10-7 13-5z" fill="#9CCFC9"/>
<path transform="translate(781,621)" d="m0 0h1v104l-10 2-77 10-6-8-5-3h-14l-10 4-11 8-5 5-11 2-62 8-8 3-3 4-12 1-2-13-2-6 4-5 1-2v-9l-4-7-7-4-5-2 1-3h2l2-4 4-2 2-5 7-7 1-2h2v-2h2l2-4h2l2-4 8-8 6-8 5-4 1-2h2v-2h2l2-4 10-10 5 5 11 8 10 5 14 4h24l14-4 12-7 7-7 6-11 3-8 10 2 9 2 12 1h14l14-2 10-4z" fill="#F8DCD4"/>
<path transform="translate(1076,764)" d="m0 0h101v143h-164l-1-1v-71l19-5 12-6 9-7 8-8 8-13 5-14 2-15z" fill="#7695E7"/>
<path transform="translate(818,589)" d="m0 0h165v110l-10 2-147 19h-8z" fill="#7695E7"/>
<path transform="translate(1568,1084)" d="m0 0h207v95h-208v-94z" fill="#F8DCD4"/>
<path transform="translate(1568,1277)" d="m0 0h207v95h-171l-12-17-10-13-14-17-1-2v-45z" fill="#F8DBD4"/>
<path transform="translate(1009,939)" d="m0 0h131v143h-131z" fill="#7695E7"/>
<path transform="translate(635,879)" d="m0 0h1l-1 18-5 48-1 7-4-1-17-12-4-3 5 25 16 76-1 5-17 6-17 3-10 1h-52l-52-1-25-2-17-3 1-51 1-29 6 4 11 8 4-2 12-17 7-11 20 8 13 3 11 1h10l15-2 17-5 16-8 12-8 14-12 13-15 10-16z" fill="#7695E7"/>
<path transform="translate(1567,1181)" d="m0 0h208v95h-51l4-3 6-3 7-8 3-10 1-16-2-9-5-8-5-3-10-1-8 3h-3l2-14 2-6-2 2-2 8-1 9-3 1-4-1h-9l-6 3-3 1-4 10v18l4 13 6 9 7 4v1h-131l-1-1z" fill="#F7DBD3"/>
<path transform="translate(674,726)" d="m0 0 10 1 6 4 3 6-1 9-6 8-8 7-7 6-7 12-5 16-10 42-11 33-10 21-9 14-7 9-11 12-11 10-16 10-12 6-16 5-13 2h-18l-20-4-12-5-5-3 2-6 11-17 25-45 2-1 11 3h14l14-5 13-10 10-12 12-19 15-26 11-19 13-22 9-17 7-9 7-7 16-8z" fill="#FCFCFC"/>
<path transform="translate(642,1422)" d="m0 0h26l20 4 17 7 14 9 14 12 12 14 11 18 8 17 6 18 5 23 1 10v42l-3 26-6 34-12 56 5-15 2-1-1 7-8 27-3 18-3 9h20l12-18 9-12 9-11 9-10 3-2-2 4-11 13-15 20-12 18h79v1l-114 1-52-1v-1h44l-5-12-7-11-8-10-9-10-10-9-14-7-12-3-9-1h-13l-25 3-7 46-2 1 1-13 9-64 5-35 10-82 7-73 4-55zm8 2-7 2-5 65-3 32v10l13 10 14 10 14 12 12 15 10 17 10 24 8 26 7 29 7 40 6 31 1 11h7l4-11 5-36 14-67 5-31 2-19v-38l-3-21-6-23-9-21-9-16-11-14-15-15-15-10-19-8-14-3-7-1z" fill="#010101"/>
<path transform="translate(810,358)" d="m0 0h162l8 17 9 12 14 14 14 10 21 12 8 4v1h-262v-45l4-10 7-8 8-5z" fill="#FCFCFC"/>
<path transform="translate(859,816)" d="m0 0 43 5v2l-14 8-10 8-26 26-11 9-14 11-18 12-19 11-19 9-25 9-18 5-30 5-26 1-19-1-20-3 1-16 4-46 5-12 40 4h60l23-3 21-5 12-4 25-12 21-13z" fill="#FCFCFC"/>
<path transform="translate(1606,1374)" d="m0 0h169v95h-134l-9-25-1-4 9-4-2-6-13-25-16-26z" fill="#F7DBD3"/>
<path transform="translate(971,1107)" d="m0 0h32l18 3 20 6 18 8 13 8 11 8 12 11 8 8 13 17 10 18 8 21 4 16 2 14v30l-3 19-6 20-8 18-10 16-10 13-13 13h-25v-3l13-11 5-4 7-8 11-15 11-21 6-19 3-16 1-13v-10l-3-23-6-20-9-19-8-12-9-11-13-13-16-11-19-10-18-6-16-3-11-1h-15l-17 2-19 5-15 6-16 9-12 9-12 11-10 12-10 16-8 17-5 17-3 19-1 9 1 18 3 17 5 16 5 12 9 16 13 16 8 8v2l4 1 11 9-1 2h-23l-1-3-4 1-5-5-9-10-11-16-6-10-8-19-6-21-2-12-1-18v-11l3-22 6-21 8-18 9-15 10-13 12-13 13-11 15-10 19-9 16-6 19-4z" fill="#C3E1DF"/>
<path transform="translate(1642,1470)" d="m0 0h133v95h-139l6-23 3-19v-32l-3-16z" fill="#FDFDFD"/>
<path transform="translate(534,831)" d="m0 0 25 1 22 3 8 2-4 8-12 16-9 9-11 7-9 3h-16l-10-3 2-5 1-2-10-3-11-6-10-8-7-5 5 5 11 9 16 8 3 1-2 6-9 16-16 29-14 22-16 24-6 8-4-1-13-10-7-7-8-11-8-15-4-13-1-5v-20l4-13 6-11 8-10 9-8 11-7 15-6 19-5 10-1 5 13 5 9 7 7 4 2h11l5-4 4-10v-18z" fill="#7695E7"/>
<path transform="translate(999,707)" d="m0 0h12l14 3 12 6 11 9 9 13 4 9 2 8 1 11-2 14-5 12-7 11-7 7-11 7-12 5-6 1h-18l-13-4-10-5-12-11-7-10-5-12-2-14 1-13 4-13 7-11 8-9 10-7 13-5z" fill="#9CD0C9"/>
<path transform="translate(906,822)" d="m0 0 14 1 60 7v77h-165v-12l9-7 16-12 14-12 15-14 8-9 11-9 14-8z" fill="#FCFCFD"/>
<path transform="translate(968,703)" d="m0 0 4 1-11 7-10 10-7 11-5 11-3 15v15l4 17 7 14 3 4v2h2l6 7 13 9v1l-16-1-69-8-7-2-9-7-8-9-8-16-2-8v-22l4-13 7-12 6-7 9-7 35-5z" fill="#F55E59"/>
<path transform="translate(888,1249)" d="m0 0 21 1 19 4 16 6 15 8 12 10 8 7 4 3 15-10 17-10 14-7 21-7 20-3h14l13 2 15 5 8 4 1 5-3-2v-2l-21-7-13-2h-12l-17 2-20 6-16 7-14 8-18 12-14 10h-2v2h-3l-1 3-15 11-8 7h-3l-2 4-10 8-13 11-12 11-5 3-4-1-10-10-11-15-9-16-6-15-4-16-2-14v-18l22-4z" fill="#C49E98"/>
<path transform="translate(1318,358)" d="m0 0h66l9 3 9 6 6 9 3 9v43h-164l4-3 15-8 15-10 13-11 7-7 10-14 5-11z" fill="#FBFCFC"/>
<path transform="translate(660,794)" d="m0 0h10l112 13v48l-5 2-22 4-26 2h-25l-25-1-28-3-7-2 7-24z" fill="#F7DBD4"/>
<path transform="translate(1448,1584)" d="m0 0 26 4-8 23-11 33-6 26-3 20-1 17-24 13-23 11-19 8-19 7-12 5-21 7-4 2-1-18h10l4-16 6-26 4-23 1-2 40-1h30l12-3 9-6 6-9 3-8z" fill="#F7DBD4"/>
<path transform="translate(1597,992)" d="m0 0h103l-3 26-4 28-6 14-7 9-9 7-8 4-7 2h-14l-10-3-9-5-10-10-6-10-4-14-6-43z" fill="#F55E59"/>
<path transform="translate(1520,813)" d="m0 0h10l23 6 23 3 13 5 11 8 7 8 6 10 5 11 4 18 1 9v25l-1 14h-1l-2-19-5-20-6-14-8-11-9-8-12-5-7-1v2h7l9 4 8 6 8 9 8 16 5 17 2 11v16l-2-3-6-15-7-12-8-8-8-4-14-3-24-2-17-4-14-6-10-7-6-7-4-13v-8l2-9 5-9 9-8z" fill="#9CCFCA"/>
<path transform="translate(867,716)" d="m0 0 2 1-7 7-8 13-4 11-2 9v16l4 16 6 12 11 12 2 3-71-8-12-2-11-10-7-12-3-10v-17l4-13 7-10 5-6 7-2z" fill="#F55E59"/>
<path transform="translate(1808,788)" d="m0 0h17l11 4 8 6 3 6 1 4v8l-2 9-6 11-9 9-10 6-12 4-21 3-20 2-19 5-12 5-14 9-13 12-3 2 2-5 7-12 11-12 10-9 15-10 23-12 5-2h-3l-19 9-18 11-13 11-8 8-7 10-6 11-1-3 6-17 10-19 12-16 11-12 10-9 16-11 15-7 19-8z" fill="#9BCFCA"/>
<path transform="translate(1728,1374)" d="m0 0h47v94h-93l2-6 16-28 8-16 10-21 9-20z" fill="#FDFDFD"/>
<path transform="translate(1666,224)" d="m0 0h2v91l9-1 11-3 55-55h2l-2 4-50 50 13-2 59-12 2 1-20 13-24 15-11 7h-2v2h67v1l-71 1-18 11-3 2 2 4 58 58v2l-4-2-58-58-4 1-7 3h-4v88h-2v-88l-13 2-12 3-51 51h-2l2-4 45-45-11 2-46 11-5 1 4-4 23-15 33-22h2v-2h-79v-1l83-1 9-6 3-6-63-63v-2l4 2 61 61 11-4h2z" fill="#010101"/>
<path transform="translate(822,480)" d="m0 0h96v52l-1 1h-93l-5-3-1-1v-45z" fill="#F7F8FB"/>
<path transform="translate(627,1598)" d="m0 0h8l15 4 11 5 11 7 12 11 8 10 9 14 8 17 9 25 10 33 5 23 1 11-2-1-7-17-8-16-6-11-9-14-11-13-10-10-10-7-15-8-16-5-20-3 1-13 5-38z" fill="#DEA301"/>
<path transform="translate(979,1124)" d="m0 0h15l18 2 19 5 16 7 16 9 13 10 15 15 11 15 10 19 7 21 3 17 1 11v12l-3 22-6 20-10 21-10 14-9 10-5 5-11 10-4 4h24l-2 4-13 10-15 9-15 7-18 6-14 3-8 1h-36l-20-4-21-7-16-8-14-9-10-8-4-4v-2h2l1 2h23l-5-5-6-5-3-1-7-8-9-10-9-13-9-17-6-18-3-14-1-7-1-19 3-22 5-19 7-16 6-11 10-14 12-13 13-11 11-7 15-8 21-7 15-3zm-3 2-24 4-19 7-16 8-14 10-13 12-9 10-9 13-8 15-6 16-4 18-1 7v26l3 19 5 16 7 16 10 16 11 13 7 7h2l2 4 14 10 18 10 20 7 15 3 10 1h21l19-3 17-5 19-9 11-7 13-10 5-5 9-10 10-14 8-15 7-19 4-20 1-15v-9l-3-22-5-17-8-18-9-14-9-11-6-7-8-7-15-11-17-9-17-6-18-4-9-1z" fill="#7695E6"/>
<path transform="translate(774,728)" d="m0 0 3 1-6 8-5 10-2 7-1 15 3 14 6 12 5 6v2h2v2l-21-2-51-6-7-2-7-7-6-12-1-4v-14l3-5 7-14 8-2z" fill="#F55E59"/>
<path transform="translate(570,1742)" d="m0 0h2v4l8 1 7 1h12l7-2v2l3-1 6 7 10 6 18 7 28 10 20 7 6 4 1 1v5l-8 5-9 2h-110l-2-6-1-14v-21l1-15z" fill="#010101"/>
<path transform="translate(331,1735)" d="m0 0h5l5 5 12 7 7 2h8 3l9 18 8 10 10 9 17 12 13 9 6 5 3 5 1 7-3 5h-8l-17-5-23-9-49-17-18-7-1-1 1-9 8-30z" fill="#010101"/>
<path transform="translate(812,1119)" d="m0 0h87l-4 4-11 8-8 7h-2v2l-7 6-9 11-9 12-10 17-8 19-6 23-2 12-2 26-9 4z" fill="#FCFCFD"/>
<path transform="translate(530,747)" d="m0 0h5l5 8 2 7-7 2h-2v6l9 1 2 1v17l-3 11-5 6-6 2h-8l6 8 2 3 2 13v19l-4 8-5 4-7 1-8-4-7-8-5-10-5-16-3-21v-19l9 1-5-1-6-3-1-2v-9l5-6 7-1 5 4 2 3-1-4 6-12 5-4z" fill="#F8F9FA"/>
<path transform="translate(1360,1339)" d="m0 0 1 2-5 17-8 15-9 10-10 8-17 9-19 7-29 7-27 4-19 2h-10v9h-7l-3-1 1-43 12 1h38l25-3 25-6 19-7 18-10 12-9 8-7z" fill="#DEA301"/>
<path transform="translate(634,1535)" d="m0 0 9 6 18 13 10 9 9 9 10 14 12 23 9 25 7 25 7 36 3 17-1 4-12-38-6-15-8-17-8-12-9-11-8-8-15-10-16-6-18-4 4-37z" fill="#F6DAD3"/>
<path transform="translate(1353,1604)" d="m0 0h58v42l-3 10-6 8-7 6-8 3h-40l2-21z" fill="#FCFCFC"/>
<path transform="translate(1435,723)" d="m0 0h10l6 4 4 7v98l-3 6-6 5-8 1-7-3-5-5-1-3v-100l4-6 3-3z" fill="#7695E7"/>
<path transform="translate(1435,592)" d="m0 0h9l7 4 3 4 1 4v97l-3 6-6 5-9 1-8-4-4-7v-100l4-6z" fill="#7695E7"/>
<path transform="translate(546,772)" d="m0 0 13 2 5 6 5 2 48 6-2 6-9 15-15 26-9-1-23-3-20-1-6-1-2-8v-9l10-10 3-8 1-6z" fill="#F6DBD4"/>
<path transform="translate(1155,1400)" d="m0 0 6 1 11 7 8 8 6 8 10 5 12 2v33h-13l-40-7-15-5-8-5-4-7-4-20-5-12 1-4 5 1 15 8 19 13 6 1h2l-2-9-9-10-3-4v-3z" fill="#F9FAFB"/>
<path transform="translate(780,442)" d="m0 0h2v100l-4-2-12-7-13-4-19-3-5-17-4-7v-2h3l2-4 8-8 7-8 5-6h2l2-4 7-7 5-6h2l2-4 4-5 5-4z" fill="#F8DCD4"/>
<path transform="translate(1370,1163)" d="m0 0h6l5 5 4 12 5 2 2-5 5-4h8l6 5 2 4v7l-3 5-3 3h-3v2h4l2 9 3 2 17 3 5 3 2 4v10l-1 5-18 3-12 5-5 2-2-10 8-15 1-3-14 4-11-1-11-4-5-5-4-5-5-13-2-14 1-11 9-4z" fill="#F7F7F9"/>
<path transform="translate(1155,314)" d="m0 0h6l5 4 3 8 1 10-3 14-3 7 1 4 10 7 7 3 5 1h9l9-3 7-6-2-5-5-8-3-11v-13l3-8 3-2 7 1 4 5 3 9v16l-4 13v3l11 7 9 3 13 1 12-2 9-4 3-1 1 3-11 5-9 2h-14l-12-3-11-6-5-4-2 4-5 4-8 3h-15l-10-4-9-6-2-2-4 1-8 7-7 3-5 1h-9l-11-4-8-6-3-2-2 5h-2v2l-9 5h-14l-9-4-7-6-2-2-8 8-12 5h-12l-1-3h10l9-3 9-6 3-5-4-8-2-7v-13l5-6h6l3 5 1 8-2 14-2 9 9 8 7 3h11l8-4 5-6-2-5-5-8-4-13v-13l2-4 3-2h7l5 6 2 8v18l-3 12 11 8 5 2 9 1 9-2 10-6 3-4-2-5-5-10-3-12v-8l2-7z" fill="#010101"/>
<path transform="translate(1724,1216)" d="m0 0 8 1 6 4 5 10 1 12-2 12-5 10-7 6-10 3h-19l-6-3-7-8-4-11-1-4v-16l4-8 6-5 10-1 8 4 4-2 5-3z" fill="#F55E59"/>
<path transform="translate(523,1080)" d="m0 0 7 1 6 5 4 8 1 4v20l-4 15-7 19-8 15-4 5-6 3-7-1-6-5-3-8v-10l3-15 11-38 5-12 5-5z" fill="#010101"/>
<path transform="translate(620,1655)" d="m0 0 14 1 15 4 12 5 12 7 13 11 7 7 10 13 9 15 8 15 10 23v2h-2l-5-12-7-11-11-14-13-13-13-8-12-4-12-2h-19l-17 2h-5l1-11 4-29z" fill="#DEA301"/>
<path transform="translate(1074,1119)" d="m0 0h74l-1 98-2-3-5-15-11-23-11-16-11-13-11-11-13-10-9-6z" fill="#FCFCFD"/>
<path transform="translate(518,1220)" d="m0 0h7l9 3 4 3 1 5-4 8-7 6-17 8-27 9-15 3h-16l-6-3-2-3v-8l4-6 9-7 19-8 25-7z" fill="#010101"/>
<path transform="translate(1765,1278)" d="m0 0h10v94h-45l3-9 11-27 7-19 10-29z" fill="#FEFEFE"/>
<path transform="translate(819,1269)" d="m0 0h2l1 3 2 17 5 21 8 20 10 19 18 24h-53v-101z" fill="#F55E59"/>
<path transform="translate(833,1250)" d="m0 0h1v10l15-5 2 1 1 19 3 17 5 16 5 12 9 16 13 16 8 8v2l4 1 11 9-1 2h-23l-1-3-4 1-5-5-9-10-11-16-6-10-8-19-6-21-2-12-1-18z" fill="#C39E9A"/>
<path transform="translate(1123,1265)" d="m0 0 5 2 11 9-1 13-5 19-8 20-9 16-9 12-9 10-8 8h-25v-3l13-11 5-4 7-8 11-15 11-21 6-19 3-16 1-10z" fill="#C2E1DF"/>
<path transform="translate(555,1614)" d="m0 0h1l2 18 5 56 1 13-10-2-14-7-7-7-4-8-2-7-1-9 2-13 8-16 11-12z" fill="#DDA301"/>
<path transform="translate(784,910)" d="m0 0m-2 1h2v691l11-1 13-24 10-15 8-10 11-12 22-18 4-1-1 3-12 9-14 12-11 12-9 13-9 15-12 23-13 31-16 47-3 10h-2l1-7 12-37 7-18 1-720-24 10-12 4-3-1 9-4 21-8z" fill="#010101"/>
<path transform="translate(306,1022)" d="m0 0h8l4 5 1 6-2 10-5 10-5 6 8 6 6 2h11l5-1v3l-2 1h-16l-10-5-3-3-5 1-5 3-10 2-9-1-10-5-3-3-4 2-6 4-11 3h-7l-11-3-9-5-6 2-10 3h-16l-11-4-9-6 1-3 11 7 11 3h11l13-4h2l-5-7-3-8v-9l3-6 6-4h8l6 5 2 10-4 10-7 8 5 4 8 3h14l10-4 4-3-2-6-2-5v-14l4-6 5-3 6 1 3 4v10l-4 11-4 6 1 3 7 4 5 2h11l10-4 1-4-3-10v-8l4-11z" fill="#010101"/>
<path transform="translate(925,1373)" d="m0 0h133l-5 4-19 9-17 5-19 3h-23l-18-3-17-5-16-7-6-4v-1z" fill="#7695E6"/>
<path transform="translate(1654,178)" d="m0 0h24l21 3 19 5 21 9 15 9 12 9 12 11 8 8 10 13 10 16 9 20 6 21 3 22v23l-3 22-6 21-9 20-10 16-11 14-17 17-15 11-16 9-16 7-16 5-15 3-10 1h-29l-19-3-15-4-15-6-14-7-11-7-13-10-14-13-11-14-7-10-11-21-8-24-3-15-1-9v-29l3-20 6-20 7-16 9-16 9-12 9-10 12-12 16-12 18-10 20-8 20-5zm-1 2-20 3-18 5-21 9-16 10-13 10-11 10-7 8-12 16-9 16-8 20-6 25-1 9v29l3 20 6 20 9 20 11 17 8 10 12 13 12 10 15 10 16 8 12 5 17 5 19 3h29l15-2 17-4 16-6 16-8 11-7 13-10 11-10 7-8 10-13 9-15 7-16 5-15 4-19 1-9v-26l-3-21-6-20-7-16-9-16-9-12-9-10-12-12-15-11-16-9-16-7-20-6-21-3z" fill="#010101"/>
<path transform="translate(249,966)" d="m0 0h21l21 2 25 5 20 7 16 8 11 7 12 10 8 10 7 14 3 14-1 13-4 12-7 11-11 12-14 10-19 10-24 8-19 4-7 1h-10l2 18 5 13 8 11 9 7 9 4v2h-15l-14-4-10-6-10-9-7-8-6-13-4-14-24-3-21-5-16-6-16-8-11-7-12-11-7-8-8-16-2-8v-14l3-12 6-11 8-10 11-10 16-10 15-7 18-6 18-4 14-2zm1 2-27 3-21 5-18 6-19 10-11 8-10 9-8 11-5 11-2 9v11l3 13 7 12 11 12 10 8 17 10 20 8 19 5 18 3 13 1 1 9 4 11 5 9 9 10 9 7 13 6 9 2 4-1-10-8-6-7-6-11-3-12-1-16h10l23-4 17-5 15-6 15-8 11-8 9-8 8-11 6-13 1-4v-18l-4-12-8-13-12-12-10-7-12-7-20-8-17-5-16-3-22-2z" fill="#010101"/>
<path transform="translate(979,1124)" d="m0 0h15l18 2 19 5 16 7 16 9 13 10 15 15 11 15 10 19 7 21 3 17 1 11v12l-3 22-6 20-10 21-10 14-9 10-5 5-11 10-10 7-17 9-24 8-20 3h-23l-19-3-20-6-23-12-13-10-5-3-7-8-9-10-9-13-9-17-6-18-3-14-1-7-1-19 3-22 5-19 7-16 6-11 10-14 12-13 13-11 11-7 15-8 21-7 15-3zm-3 2-24 4-19 7-16 8-14 10-13 12-9 10-9 13-8 15-6 16-4 18-1 7v26l3 19 5 16 7 16 10 16 11 13 7 7h2l2 4 14 10 18 10 20 7 15 3 10 1h21l19-3 17-5 19-9 11-7 13-10 5-5 9-10 10-14 8-15 7-19 4-20 1-15v-9l-3-22-5-17-8-18-9-14-9-11-6-7-8-7-15-11-17-9-17-6-18-4-9-1z" fill="#010101"/>
<path transform="translate(1355,1567)" d="m0 0 8 1 48 10v23l-1 1h-56v-26z" fill="#7695E7"/>
<path transform="translate(1021,1177)" d="m0 0h8l8 3 6 5 4 9 1 8-3 9-3 5-10 6-10 1-9-3-5-5-4-5-2-6v-8l4-10 7-6z" fill="#C49F99"/>
<path transform="translate(612,749)" d="m0 0h4l-3 9v14l4 9 2 5-14-1-35-4-6-3-4-6v-8l4-6 4-3 36-5z" fill="#F55E59"/>
<path transform="translate(1167,937)" d="m0 0h207v146l-1 1h-206zm2 2v143h202l1-141-1-2z" fill="#010101"/>
<path transform="translate(1208,762)" d="m0 0h168l1 1v145l-1 1h-168l-1-1v-145zm2 2v142l1 1h162l1-1v-142z" fill="#010101"/>
<path transform="translate(1656,204)" d="m0 0h21l19 3 17 5 11 5 15 8 13 10 7 6 7 8 11 14 7 12 7 17 5 18 2 15v21l-3 20-5 16-7 16-9 14-8 10-9 10-11 9-14 9-16 8-15 5-14 3-8 1h-25l-18-3-17-5-19-9-17-12-5-4v-2l-4-2-11-12-12-18-8-17-6-21-2-14v-25l3-18 5-16 7-16 10-16 11-13h2l2-4 8-7 16-11 16-8 17-6 15-3zm-4 2-20 4-15 5-16 8-12 8-13 11-8 8-9 12-9 15-7 17-4 15-2 11v31l4 20 7 19 8 15 9 12 9 10 8 8 15 11 17 9 21 7 16 3h31l20-4 19-7 15-8 12-9 12-11 9-10 10-15 8-16 5-15 4-20v-28l-3-17-5-16-10-21-10-14-14-15-14-11-14-8-15-7-18-5-13-2z" fill="#010101"/>
<path transform="translate(1432,1396)" d="m0 0h2l13 32 8 18v13h-9l-18-2-3-1v-51l3-6z" fill="#9CCFC9"/>
<path transform="translate(363,389)" d="m0 0h11l9 2 10 5 7 6 5 6 11-4h18l12 5 9 8 5 8 3 12 2 2 13 4 10 9 5 9 2 8v12l-3 12-6 10-7 7-10 6-13 4-5 1h-23l-13-4-8-4-7 6-10 4-4 1h-20l-12-4-9-6-8-8-3-4-12 5-14 3h-11l-12-3-10-6-7-9-4-11v-16l4-12 8-11 8-7 11-5 10-2h11l7 1 1-10 5-10 8-9 9-6 11-4zm0 2-12 3-9 5-9 8-6 10-2 6v8l-9-1h-12l-13 4-9 5-7 7-7 12-2 7v16l5 12 6 7 8 5 6 2 7 1h10l14-3 13-6 7 9 5 5 10 6 10 3 11 1 12-2 12-6 6-5 7 5 13 4h23l15-4 11-6 8-8 6-12 2-8v-11l-4-13-9-10-10-5-9-2-2-12-6-10-8-7-8-4-14-2-11 2-6 3h-3l-7-9-9-6-13-4z" fill="#010101"/>
<path transform="translate(810,937)" d="m0 0h169v147h-169zm2 2v143h165v-143z" fill="#010101"/>
<path transform="translate(784,808)" d="m0 0 14 1 15 2v32l-14 7-11 4h-4z" fill="#7695E7"/>
<path transform="translate(1007,937)" d="m0 0h135v147h-135zm2 2v143h131v-143z" fill="#010101"/>
<path transform="translate(1520,811)" d="m0 0h11l22 6 23 3 14 5 12 9 9 11 8 16 4 15 2 16v25l-2 22-1 5-1 19-2 4-1-25-4-15-9-19-5-6v-2l-4-2-6-4-16-4-31-3-16-5-15-8-9-8-4-8-2-9v-8l3-12 6-9 7-6zm0 2-8 4-7 7-5 11-1 6v8l4 13 8 9 14 8 15 5 10 2 24 2 16 4 7 4 7 7 8 14 6 16h1v-16l-4-19-6-16-7-12-9-9-9-5-5-2h-7v-2l10 2 12 6 8 8 8 13 5 13 5 23 1 13h1l1-14v-25l-3-20-5-14-6-11-8-10-10-8-12-5-10-2-21-3-18-5z" fill="#010101"/>
<path transform="translate(1146,1303)" d="m0 0 2 2v68l-1 1h-23l-10-8 6-9 7-10 8-14 8-20z" fill="#F8F8FB"/>
<path transform="translate(1751,301)" d="m0 0 4 1-14 9-24 15-12 8-7 4-8 5h-2l-1-13-4-8-6-5v-1z" fill="#F55E59"/>
<path transform="translate(1642,1470)" d="m0 0h133v1l-97 1-1 4-3 6h-2l-2 6-22 33h-2l-1-30-3-16z" fill="#F0D3CC"/>
<path transform="translate(971,1107)" d="m0 0h32l18 3 20 6 4 3h-117l4-3 20-6z" fill="#7695E6"/>
<path transform="translate(1645,332)" d="m0 0h1l2 12 4 6 5 6-71 17-2-1 27-18 17-11 12-8z" fill="#7695E7"/>
<path transform="translate(1409,1418)" d="m0 0h2v37l-38-2-9-1 3-3 18-11 16-13z" fill="#7695E7"/>
<path transform="translate(1150,1394)" d="m0 0h15l6 1h26v28l-1 5-8-4-8-9-5-6-10-7-4-2-7-1z" fill="#F4F6F7"/>
<path transform="translate(1678,661)" d="m0 0 13 1 11 4 11 8 8 11 5 16 1 7v17l-2-1-2-23-4-13-6-10-8-7-11-5-9-2h-8l-12 3-12 6-9 8-7 10-5 11-3 15-1 35v64l1 28 3 36v8l-2-1-3-29-2-42v-68l1-32 3-15 7-14 10-12 10-7 11-5z" fill="#010101"/>
<path transform="translate(855,488)" d="m0 0h7l6 3 5 6 1 7-3 8-5 4-2 1h-10l-5-3-4-5-1-3v-7l4-7z" fill="#F8F9FA"/>
<path transform="translate(815,811)" d="m0 0 36 4 5 1-4 4-20 13-16 9h-1z" fill="#F9F9FA"/>
<path transform="translate(1033,738)" d="m0 0 5 5 4 9v18l-5 12-7 8-8 6-9 4-14 1-3-1-1-5 3-2 16-2 10-6 6-7 4-10v-13l-4-11-1-3 1-2z" fill="#FEFEFE"/>
<path transform="translate(888,1249)" d="m0 0 21 1 19 4 16 6 15 8 12 10 8 7 4 3 15-10 17-10 14-7 21-7 20-3h14l13 2 15 5 8 4 1 5-3-2v-2l-21-7-13-2h-12l-17 2-20 6-16 7-14 8-18 12-14 10h-2v2l-3-1 10-8h2l-3-5-8-8-8-6-13-8-16-7-23-5-21-1-20 2-11 2h-4v-2l22-4z" fill="#7695E7"/>
<path transform="translate(957,1524)" d="m0 0h2v2l-19 10-12 6-27 16-18 13-15 13-17 17-9 11-14 18-12 18-8 13-10 17-13 24-10 19-11 23-7 13-2-2 20-40 10-19 13-24 14-23 8-12 10-14 8-10 9-11 12-13 6-6h2v-2l8-7 17-13 22-14 18-10 22-12z" fill="#010101"/>
<path transform="translate(683,1503)" d="m0 0 5 2 15 15 11 15 10 18 6 15 6 21 5 30 2 26v65l-1 47-2-1v-104l-2-30-4-26-4-17-6-17-9-19-7-11-11-14-10-10-4-3z" fill="#010101"/>
<path transform="translate(1715,1197)" d="m0 0 2 1-3 10-2 10 11-4 10 1 6 4 5 8 2 9-1 16-3 10-9 10-7 3 47 1v1h-76v-2l-8-6-6-12-2-8v-18l5-10 6-4 3-1h9l6 1 2-14zm9 19-8 3-3 3-10-4-10 1-7 6-3 7v16l4 13 6 8 5 4 3 1h19l10-3 8-7 4-9 2-12-1-12-5-10-6-4z" fill="#010101"/>
<path transform="translate(681,760)" d="m0 0h1l1 15 5 12 5 7-3 1-26-3-2-1 2-9 7-13 7-7z" fill="#F55E59"/>
<path transform="translate(1777,1181)" d="m0 0h15l-6 27-7 24-1 43h15v1h-16z" fill="#EDD6CF"/>
<path transform="translate(1156,316)" d="m0 0 5 1 4 5 2 6v12l-3 12-4 4-6-10-3-10v-14l3-5z" fill="#F55E59"/>
<path transform="translate(1208,319)" d="m0 0h5l4 5 2 5 1 6v9l-3 12-3 3-6-9-3-8-1-13 3-9z" fill="#F55E59"/>
<path transform="translate(636,746)" d="m0 0h5l-7 14-10 18-3 2-3-4-2-7v-7l4-11 2-3z" fill="#F55E59"/>
<path transform="translate(216,1026)" d="m0 0h5l5 5 1 2v8l-4 8-6 6h-3l-5-7-2-8 1-8 5-5z" fill="#F55E59"/>
<path transform="translate(1102,319)" d="m0 0 5 1 3 4 2 10v11l-3 13-5-5-5-11-2-9v-7l3-6z" fill="#F55E59"/>
<path transform="translate(1695,1222)" d="m0 0 6 1 5 6 1 4-2 8-4 4-5 1-6-3-3-5v-9l5-6z" fill="#DEA401"/>
<path transform="translate(308,1024)" d="m0 0 5 1 3 4v9l-5 12-5 6h-2l-3-7v-13l3-8z" fill="#F55E59"/>
<path transform="translate(264,1026)" d="m0 0h5l3 4-1 10-3 8-4 6-4-4-2-5v-11l4-7z" fill="#F55E59"/>
<path transform="translate(1658,703)" d="m0 0h6l6 7 2 9-1 7-4 1-8-7-3-5-1-8z" fill="#F2D8D1"/>
<path transform="translate(1021,1177)" d="m0 0h8l8 3 6 5 4 9 1 8-3 9-3 5-10 6-10 1-9-3-5-5-4-5-2-6v-8l4-10 7-6zm0 2-9 4-5 6-3 7v8l3 7 5 6 10 4 10-1 8-5 4-6 2-8-1-8-6-9-7-4-4-1z" fill="#7695E7"/>
<path transform="translate(888,1249)" d="m0 0 21 1 19 4 16 6 15 8 10 8v2l-4-2-10-7-16-8-11-4-19-4-21-1-20 2-11 2h-4v-2l22-4z" fill="#7392E2"/>
<path transform="translate(1062,327)" d="m0 0 4 2 1 3v14l-3 10h-2l-4-10-1-4v-9l3-5z" fill="#F55E59"/>
<path transform="translate(1564,1277)" d="m0 0 2 1v43l-7-6-4-5 2-4 5-11 1-4z" fill="#E5CBC7"/>
<path transform="translate(1248,1474)" d="m0 0h26l-7 14h-3l-10-8-6-5z" fill="#7695E7"/>
<path transform="translate(856,486)" d="m0 0 9 1 6 4 4 7v10l-2 6 11 9-2 2-10-9-4 1-5 2h-9l-7-4-4-6-1-9 4-8 5-4zm-1 2-7 4-4 7v7l3 6 4 4 3 1h10l6-4 3-5 1-7-3-7-6-5-3-1z" fill="#010101"/>
<path transform="translate(536,779)" d="m0 0h4l-2 8-5 5h-8l-6-4-1-3z" fill="#010101"/>
<path transform="translate(1551,1490)" d="m0 0h2l4 11 6 8 9 8 12 5 12 1h5l1 2-2 1h-13l-13-4-10-7-8-9-5-11z" fill="#010101"/>
<path transform="translate(896,1362)" d="m0 0 4 2 10 8-1 2h-23l-1-3h2l1-3h2v-2h2v-2z" fill="#C0DEDC"/>
<path transform="translate(277,1124)" d="m0 0h10l-5 25-2-1-3-11z" fill="#F8F8F8"/>
<path transform="translate(1695,1222)" d="m0 0 6 1 5 6 1 4-2 8-4 4-5 1-6-3-3-5v-9l5-6zm-1 3-4 4-1 7 3 5 2 2 7-1 3-4v-7l-3-5z" fill="#010101"/>
<path transform="translate(1658,701)" d="m0 0h6l7 6 3 11-1 9-2 2-7-1-7-7-4-9v-6zm0 2-3 4 1 8 4 6 7 6 4-1 1-7-2-9-6-7z" fill="#010101"/>
<path transform="translate(1773,1248)" d="m0 0h2v27h-9l3-11z" fill="#FEFEFE"/>
<path transform="translate(603,610)" d="m0 0 2 1 2 13 5 10 6 7 11 7 14 4v2l-9-1-10-4-8-6v-2l-3-1-7-11-3-8-1-10z" fill="#010101"/>
<path transform="translate(1070,1251)" d="m0 0h14l13 2 15 5 8 4 1 5-3-2v-2l-21-7-13-2h-23l1-2z" fill="#7696E6"/>
<path transform="translate(542,567)" d="m0 0h2l-1 3-10 2-9 4-8 7-4 8-1 3v13l-2-1-1-3v-9l4-10 7-8 8-5 9-3z" fill="#010101"/>
<path transform="translate(784,1604)" d="m0 0h10l-2 6-7 16h-1z" fill="#F6F7F9"/>
<path transform="translate(1618,347)" d="m0 0m-1 1m-2 1h2l-1 3-16 10-10 7-5 3 1 3-13 3 4-4 23-15z" fill="#010101"/>
<path transform="translate(939,1322)" d="m0 0h2l-2 4-10 8-13 11-12 11-5 3-3-1 6-4h2l2-4 13-11 9-7 4-4z" fill="#7695E7"/>
<path transform="translate(612,499)" d="m0 0 2 2-9 8-7 11-4 13-1 8h-2v-8l4-13 5-9 9-10z" fill="#010101"/>
<path transform="translate(536,781)" d="m0 0 1 4-4 5-5 1-7-3v-2z" fill="#ECEEF2"/>
<path transform="translate(969,1277)" d="m0 0 6 4 7 7 6-2-2 4-13 9h-2v2l-3-1 10-8h2l-3-5-8-8z" fill="#7695E7"/>
<path transform="translate(360,399)" d="m0 0h5v2l-13 4-8 6-5 7-2 4-2-2 6-10 7-6 8-4z" fill="#010101"/>
<path transform="translate(1765,296)" d="m0 0 2 1-20 13-5 3-2-1 7-6 7-4 2-4z" fill="#040202"/>
<path transform="translate(1042,1211)" d="m0 0 2 1-2 4-10 6-10 1-9-3-3-2v-2l12 4 10-1 7-4z" fill="#7695E7"/>
<path transform="translate(304,440)" d="m0 0h3v2l-13 5-5 4-6 10h-2l1-5 6-8 9-6z" fill="#010101"/>
<path transform="translate(1038,1183)" d="m0 0 4 1 4 7 2 7-1 9-2 4h-2l2-10-1-8z" fill="#6A86D0"/>
<path transform="translate(966,1301)" d="m0 0h2l-1 3-15 11-8 7-3-1 8-7z" fill="#7695E7"/>
<path transform="translate(944,1261)" d="m0 0 6 2 10 6 9 7v2l-4-2-10-7-11-6z" fill="#657FC6"/>
<path transform="translate(833,1250)" d="m0 0h1v10l15-5 2 1-5 3-11 3-2-1z" fill="#6E8BD7"/>
<path transform="translate(423,414)" d="m0 0h14l5 2v2l-6-1h-16v-2z" fill="#010101"/>
<path transform="translate(1123,1265)" d="m0 0 5 2 11 9v3h-2l-5-5-9-7z" fill="#7695E7"/>
<path transform="translate(758,1694)" d="m0 0h3l-3 12-3 10-1-4z" fill="#DCCAC8"/>
<path transform="translate(1e3 1196)" d="m0 0h1l2 12 5 8-4-2-4-6-1-4v-7z" fill="#6D89D5"/>
<path transform="translate(1586,368)" d="m0 0m-1 1m-2 1h2l1 5-13 3 4-4z" fill="#030406"/>
<path transform="translate(1022,1177)" d="m0 0h7l8 3 2 3h-3l-8-3-7-1z" fill="#7391E1"/>
<path transform="translate(969,1277)" d="m0 0 6 4 6 6v2l-4-2-8-8z" fill="#6E8BD8"/>
<path transform="translate(932,1256)" d="m0 0 10 3 2 1v2l-10-3-2-1z" fill="#6D89D5"/>
</svg>
